<?xml version="1.0" standalone="no"?>
  <!DOCTYPE svg PUBLIC "-//W3C//DTD SVG 1.1//EN" "http://www.w3.org/Graphics/SVG/1.1/DTD/svg11.dtd" >
  <svg>
  <metadata>
  Created by font-carrier
  </metadata>
  <defs>
  <font id="Montserrat-ExtraBold" horiz-adv-x="1736" vert-adv-y="1736" >
    <font-face
      
      font-family="Montserrat-ExtraBold"
      
      font-weight="400"
      
      font-stretch="normal"
      
      units-per-em="1000"
      
      ascent="968"
      
      descent="-251"
      
    />
      <missing-glyph />

      

      
      <glyph glyph-name="uni21" unicode="&#x21;" d="M38 700L264 700L226 255L75 255L38 700M151-9Q101-9 69 21.50Q37 52 37 96Q37 141 69 170Q101 199 151 199Q201 199 232.50 170Q264 141 264 96Q264 52 232 21.50Q200-9 151-9Z"  horiz-adv-x="301" vert-adv-y="1000"  />

      
      <glyph glyph-name="uni22" unicode="&#x22;" d="M41 700L201 700L188 408L53 408L41 700M261 700L421 700L408 408L273 408L261 700Z"  horiz-adv-x="462" vert-adv-y="1000"  />

      
      <glyph glyph-name="uni23" unicode="&#x23;" d="M571 422L554 278L679 278L679 149L538 149L519 0L383 0L402 149L279 149L260 0L124 0L143 149L17 149L17 278L159 278L176 422L50 422L50 551L192 551L211 700L347 700L328 551L451 551L470 700L606 700L587 551L713 551L713 422L571 422M435 422L312 422L295 278L418 278L435 422Z"  horiz-adv-x="730" vert-adv-y="1000"  />

      
      <glyph glyph-name="uni24" unicode="&#x24;" d="M626 212Q626 129 566.50 68.50Q507 8 394-9L394-120L274-120L274-13Q199-8 132 12.50Q65 33 21 63L86 209Q133 178 195 159Q257 140 317 140Q431 140 431 197Q431 227 398.50 241.50Q366 256 294 272Q215 289 162 308.50Q109 328 71 371Q33 414 33 487Q33 573 95 634.50Q157 696 274 710L274 820L394 820L394 712Q451 707 503.50 692Q556 677 597 653L536 506Q436 560 342 560Q283 560 256 542.50Q229 525 229 497Q229 469 261 455Q293 441 364 426Q444 409 496.50 389.50Q549 370 587.50 327.50Q626 285 626 212Z"  horiz-adv-x="647" vert-adv-y="1000"  />

      
      <glyph glyph-name="uni25" unicode="&#x25;" d="M201 321Q122 321 72 373Q22 425 22 515Q22 574 45 618Q68 662 108.50 685.50Q149 709 201 709Q281 709 331 656.50Q381 604 381 515Q381 425 331 373Q281 321 201 321M615 700L759 700L281 0L137 0L615 700M201 416Q228 416 244 440Q260 464 260 515Q260 566 244 590Q228 614 201 614Q175 614 158.50 589.50Q142 565 142 515Q142 465 158.50 440.50Q175 416 201 416M695-9Q615-9 565.50 43Q516 95 516 185Q516 274 566 326.50Q616 379 695 379Q775 379 825 326.50Q875 274 875 185Q875 95 825 43Q775-9 695-9M695 86Q722 86 738 110Q754 134 754 185Q754 236 738 260Q722 284 695 284Q668 284 652 260Q636 236 636 185Q636 134 652 110Q668 86 695 86Z"  horiz-adv-x="897" vert-adv-y="1000"  />

      
      <glyph glyph-name="uni26" unicode="&#x26;" d="M624-12L545 58Q496 23 436 4.50Q376-14 310-14Q231-14 167 11.50Q103 37 67 82Q31 127 31 183Q31 249 66 298.50Q101 348 177 389Q110 457 110 530Q110 583 139 624Q168 665 221.50 687.50Q275 710 345 710Q442 710 501.50 664.50Q561 619 561 542Q561 488 529.50 446Q498 404 431 367L533 276Q553 320 564 376L717 330Q697 240 652 171L726 105L624-12M345 585Q316 585 299.50 570.50Q283 556 283 533Q283 516 292.50 500.50Q302 485 328 460Q368 481 384.50 499.50Q401 518 401 538Q401 560 386.50 572.50Q372 585 345 585M324 131Q382 131 431 160L280 294Q247 274 232 252.50Q217 231 217 204Q217 172 246 151.50Q275 131 324 131Z"  horiz-adv-x="752" vert-adv-y="1000"  />

      
      <glyph glyph-name="uni27" unicode="&#x27;" d="M41 700L201 700L188 408L53 408L41 700Z"  horiz-adv-x="242" vert-adv-y="1000"  />

      
      <glyph glyph-name="uni28" unicode="&#x28;" d="M189-194Q127-104 93.50 16.50Q60 137 60 274Q60 411 93.50 531.50Q127 652 189 742L371 742Q306 627 276 513.50Q246 400 246 274Q246 148 276 34.50Q306-79 371-194L189-194Z"  horiz-adv-x="369" vert-adv-y="1000"  />

      
      <glyph glyph-name="uni29" unicode="&#x29;" d="M-2-194Q63-79 93 34.50Q123 148 123 274Q123 400 93 513.50Q63 627-2 742L180 742Q242 652 275.50 531.50Q309 411 309 274Q309 137 275.50 16.50Q242-104 180-194L-2-194Z"  horiz-adv-x="369" vert-adv-y="1000"  />

      
      <glyph glyph-name="uni2a" unicode="&#x2a;" d="M341 538L443 483L385 387L280 450L283 335L169 335L172 450L67 387L10 483L112 538L10 594L67 690L172 626L169 742L283 742L280 626L385 690L443 594L341 538Z"  horiz-adv-x="453" vert-adv-y="1000"  />

      
      <glyph glyph-name="uni2b" unicode="&#x2b;" d="M551 277L382 277L382 112L228 112L228 277L58 277L58 423L228 423L228 588L382 588L382 423L551 423L551 277Z"  horiz-adv-x="609" vert-adv-y="1000"  />

      
      <glyph glyph-name="uni2c" unicode="&#x2c;" d="M142 216Q191 216 223 185Q255 154 255 104Q255 81 249 58Q243 35 222-11L159-157L40-157L87 6Q59 19 43.50 44.50Q28 70 28 104Q28 154 60 185Q92 216 142 216Z"  horiz-adv-x="283" vert-adv-y="1000"  />

      
      <glyph glyph-name="uni2d" unicode="&#x2d;" d="M48 358L340 358L340 212L48 212L48 358Z"  horiz-adv-x="388" vert-adv-y="1000"  />

      
      <glyph glyph-name="uni2e" unicode="&#x2e;" d="M141-9Q93-9 60 23Q27 55 27 104Q27 154 59.50 185Q92 216 141 216Q191 216 223 185Q255 154 255 104Q255 55 222.50 23Q190-9 141-9Z"  horiz-adv-x="283" vert-adv-y="1000"  />

      
      <glyph glyph-name="uni2f" unicode="&#x2f;" d="M293 842L462 842L132-100L-37-100L293 842Z"  horiz-adv-x="415" vert-adv-y="1000"  />

      
      <glyph glyph-name="uni30" unicode="&#x30;" d="M343-14Q253-14 183 29Q113 72 73.50 154.50Q34 237 34 350Q34 463 73.50 545.50Q113 628 183 671Q253 714 343 714Q432 714 502 671Q572 628 611.50 545.50Q651 463 651 350Q651 237 611.50 154.50Q572 72 502 29Q432-14 343-14M343 148Q393 148 422.50 196.50Q452 245 452 350Q452 455 422.50 503.50Q393 552 343 552Q292 552 262.50 503.50Q233 455 233 350Q233 245 262.50 196.50Q292 148 343 148Z"  horiz-adv-x="685" vert-adv-y="1000"  />

      
      <glyph glyph-name="uni31" unicode="&#x31;" d="M334 700L334 0L136 0L136 547L6 547L6 700L334 700Z"  horiz-adv-x="405" vert-adv-y="1000"  />

      
      <glyph glyph-name="uni32" unicode="&#x32;" d="M575 157L575 0L30 0L30 124L292 369Q330 405 343 430.50Q356 456 356 482Q356 516 333 535Q310 554 266 554Q227 554 194.50 536.50Q162 519 141 486L-6 568Q35 636 109 675Q183 714 284 714Q364 714 425.50 688Q487 662 521.50 613.50Q556 565 556 501Q556 444 531.50 393.50Q507 343 437 279L305 157L575 157Z"  horiz-adv-x="599" vert-adv-y="1000"  />

      
      <glyph glyph-name="uni33" unicode="&#x33;" d="M393 420Q480 402 526.50 348.50Q573 295 573 219Q573 157 539.50 104Q506 51 437.50 18.50Q369-14 268-14Q194-14 121.50 4Q49 22-4 55L68 204Q109 176 160.50 161Q212 146 262 146Q313 146 343 165Q373 184 373 219Q373 287 266 287L183 287L183 412L308 547L32 547L32 700L538 700L538 576L393 420Z"  horiz-adv-x="603" vert-adv-y="1000"  />

      
      <glyph glyph-name="uni34" unicode="&#x34;" d="M694 134L590 134L590 0L397 0L397 134L27 134L27 263L341 700L546 700L261 291L403 291L403 410L590 410L590 291L694 291L694 134Z"  horiz-adv-x="700" vert-adv-y="1000"  />

      
      <glyph glyph-name="uni35" unicode="&#x35;" d="M296 445Q443 445 513.50 385Q584 325 584 225Q584 160 550.50 105.50Q517 51 448.50 18.50Q380-14 279-14Q205-14 132.50 4Q60 22 8 55L79 204Q121 176 171.50 161Q222 146 273 146Q324 146 354.50 165.50Q385 185 385 220Q385 255 355 273Q325 291 249 291L59 291L94 700L540 700L540 547L258 547L249 445L296 445Z"  horiz-adv-x="607" vert-adv-y="1000"  />

      
      <glyph glyph-name="uni36" unicode="&#x36;" d="M392 446Q458 446 513 418.50Q568 391 600.50 340.50Q633 290 633 225Q633 154 596.50 99.50Q560 45 497.50 15.50Q435-14 358-14Q208-14 121 75Q34 164 34 331Q34 451 80.50 537.50Q127 624 211 669Q295 714 406 714Q466 714 520 701Q574 688 612 663L540 521Q489 557 411 557Q335 557 288 515Q241 473 234 394Q294 446 392 446M346 127Q388 127 414.50 151Q441 175 441 216Q441 256 414.50 280Q388 304 345 304Q302 304 275 279.50Q248 255 248 215Q248 176 274.50 151.50Q301 127 346 127Z"  horiz-adv-x="649" vert-adv-y="1000"  />

      
      <glyph glyph-name="uni37" unicode="&#x37;" d="M603 700L603 576L356 0L140 0L376 543L192 543L192 435L23 435L23 700L603 700Z"  horiz-adv-x="632" vert-adv-y="1000"  />

      
      <glyph glyph-name="uni38" unicode="&#x38;" d="M538 369Q586 341 612 300Q638 259 638 206Q638 140 600 90Q562 40 493 13Q424-14 334-14Q244-14 175 13Q106 40 68 90Q30 140 30 206Q30 259 56 300Q82 341 130 369Q94 394 74.50 430Q55 466 55 510Q55 571 90 617.50Q125 664 188.50 689Q252 714 334 714Q416 714 479.50 689Q543 664 578 617.50Q613 571 613 510Q613 466 593.50 430Q574 394 538 369M334 575Q297 575 274 555.50Q251 536 251 501Q251 467 273.50 447.50Q296 428 334 428Q372 428 395 447.50Q418 467 418 501Q418 536 395 555.50Q372 575 334 575M334 125Q382 125 410.50 148.50Q439 172 439 212Q439 252 410.50 275.50Q382 299 334 299Q286 299 257.50 275.50Q229 252 229 212Q229 172 257.50 148.50Q286 125 334 125Z"  horiz-adv-x="669" vert-adv-y="1000"  />

      
      <glyph glyph-name="uni39" unicode="&#x39;" d="M290 714Q441 714 528 625Q615 536 615 369Q615 249 568.50 162.50Q522 76 437.50 31Q353-14 242-14Q183-14 129-0.50Q75 13 37 37L109 179Q160 143 238 143Q313 143 359.50 184.50Q406 226 414 305Q354 254 257 254Q191 254 136 281.50Q81 309 48.50 359.50Q16 410 16 475Q16 546 52.50 600.50Q89 655 151.50 684.50Q214 714 290 714M304 396Q347 396 374 420.50Q401 445 401 485Q401 524 374.50 548.50Q348 573 303 573Q261 573 234.50 549Q208 525 208 484Q208 444 234.50 420Q261 396 304 396Z"  horiz-adv-x="649" vert-adv-y="1000"  />

      
      <glyph glyph-name="uni3a" unicode="&#x3a;" d="M141 326Q93 326 60 358Q27 390 27 439Q27 489 59.50 520Q92 551 141 551Q191 551 223 520Q255 489 255 439Q255 390 222.50 358Q190 326 141 326M141-9Q93-9 60 23Q27 55 27 104Q27 154 59.50 185Q92 216 141 216Q191 216 223 185Q255 154 255 104Q255 55 222.50 23Q190-9 141-9Z"  horiz-adv-x="283" vert-adv-y="1000"  />

      
      <glyph glyph-name="uni3b" unicode="&#x3b;" d="M141 326Q93 326 60 358Q27 390 27 439Q27 489 59.50 520Q92 551 141 551Q191 551 223 520Q255 489 255 439Q255 390 222.50 358Q190 326 141 326M142 216Q191 216 223 185Q255 154 255 104Q255 81 249 58Q243 35 222-11L159-157L40-157L87 6Q59 19 43.50 44.50Q28 70 28 104Q28 154 60 185Q92 216 142 216Z"  horiz-adv-x="283" vert-adv-y="1000"  />

      
      <glyph glyph-name="uni3c" unicode="&#x3c;" d="M551 463L232 350L551 237L551 91L58 273L58 427L551 609L551 463Z"  horiz-adv-x="609" vert-adv-y="1000"  />

      
      <glyph glyph-name="uni3d" unicode="&#x3d;" d="M58 549L551 549L551 404L58 404L58 549M58 296L551 296L551 151L58 151L58 296Z"  horiz-adv-x="609" vert-adv-y="1000"  />

      
      <glyph glyph-name="uni3e" unicode="&#x3e;" d="M551 427L551 273L58 91L58 237L377 350L58 463L58 609L551 427Z"  horiz-adv-x="609" vert-adv-y="1000"  />

      
      <glyph glyph-name="uni3f" unicode="&#x3f;" d="M212 255Q212 305 234 337.50Q256 370 298 409Q327 436 341 454.50Q355 473 355 494Q355 523 330.50 540.50Q306 558 267 558Q227 558 194.50 539Q162 520 142 486L-7 566Q34 636 109 675Q184 714 290 714Q409 714 481.50 664.50Q554 615 554 526Q554 485 540 453.50Q526 422 506.50 400.50Q487 379 456 352Q422 323 406 302.50Q390 282 390 255L212 255M301-9Q252-9 220 21.50Q188 52 188 96Q188 141 219.50 170Q251 199 301 199Q351 199 383 170Q415 141 415 96Q415 52 383 21.50Q351-9 301-9Z"  horiz-adv-x="597" vert-adv-y="1000"  />

      
      <glyph glyph-name="uni40" unicode="&#x40;" d="M525 712Q664 712 772.50 655Q881 598 941.50 499Q1002 400 1002 278Q1002 188 973.50 123.50Q945 59 895.50 25.50Q846-8 782-8Q729-8 691 14Q653 36 635 79Q586-8 473-8Q414-8 363 23.50Q312 55 281.50 112Q251 169 251 243Q251 317 281 374Q311 431 362 462Q413 493 473 493Q561 493 612 436L612 485L775 485L775 180Q775 148 787 134Q799 120 819 120Q882 120 882 275Q882 370 837.50 444Q793 518 712 559.50Q631 601 525 601Q420 601 338.50 556Q257 511 212 431.50Q167 352 167 253Q167 152 211 72Q255-8 335.50-52.50Q416-97 521-97Q628-97 720-53L757-160Q712-182 648.50-195Q585-208 521-208Q376-208 265.50-148Q155-88 94.50 17Q34 122 34 253Q34 383 95 487.50Q156 592 267.50 652Q379 712 525 712M516 128Q560 128 587.50 158Q615 188 615 243Q615 297 587.50 327Q560 357 516 357Q472 357 445 327Q418 297 418 243Q418 189 445 158.50Q472 128 516 128Z"  horiz-adv-x="1036" vert-adv-y="1000"  />

      
      <glyph glyph-name="uni41" unicode="&#x41;" d="M539 136L243 136L188 0L-14 0L295 700L490 700L800 0L594 0L539 136M481 282L391 506L301 282L481 282Z"  horiz-adv-x="786" vert-adv-y="1000"  />

      
      <glyph glyph-name="uni42" unicode="&#x42;" d="M608 365Q668 344 702 299.50Q736 255 736 192Q736 100 662 50Q588 0 448 0L70 0L70 700L428 700Q562 700 632 650.50Q702 601 702 517Q702 467 677.50 427.50Q653 388 608 365M266 557L266 422L402 422Q502 422 502 490Q502 557 402 557L266 557M432 143Q536 143 536 214Q536 285 432 285L266 285L266 143L432 143Z"  horiz-adv-x="769" vert-adv-y="1000"  />

      
      <glyph glyph-name="uni43" unicode="&#x43;" d="M419-14Q309-14 221.50 32.50Q134 79 84 162Q34 245 34 350Q34 455 84 538Q134 621 221.50 667.50Q309 714 419 714Q515 714 592 680Q669 646 720 582L594 468Q526 550 429 550Q372 550 327.50 525Q283 500 258.50 454.50Q234 409 234 350Q234 291 258.50 245.50Q283 200 327.50 175Q372 150 429 150Q526 150 594 232L720 118Q669 54 592 20Q515-14 419-14Z"  horiz-adv-x="738" vert-adv-y="1000"  />

      
      <glyph glyph-name="uni44" unicode="&#x44;" d="M70 700L401 700Q516 700 605 657Q694 614 743 535Q792 456 792 350Q792 244 743 165Q694 86 605 43Q516 0 401 0L70 0L70 700M393 158Q483 158 537.50 209Q592 260 592 350Q592 440 537.50 491Q483 542 393 542L268 542L268 158L393 158Z"  horiz-adv-x="826" vert-adv-y="1000"  />

      
      <glyph glyph-name="uni45" unicode="&#x45;" d="M632 153L632 0L70 0L70 700L619 700L619 547L266 547L266 429L577 429L577 281L266 281L266 153L632 153Z"  horiz-adv-x="672" vert-adv-y="1000"  />

      
      <glyph glyph-name="uni46" unicode="&#x46;" d="M268 547L268 393L577 393L577 240L268 240L268 0L70 0L70 700L619 700L619 547L268 547Z"  horiz-adv-x="642" vert-adv-y="1000"  />

      
      <glyph glyph-name="uni47" unicode="&#x47;" d="M539 365L714 365L714 75Q654 32 576 9Q498-14 420-14Q310-14 222 32.50Q134 79 84 162Q34 245 34 350Q34 455 84 538Q134 621 223 667.50Q312 714 424 714Q522 714 600 681Q678 648 730 586L604 472Q533 550 434 550Q344 550 289 495.50Q234 441 234 350Q234 292 259 246.50Q284 201 329 175.50Q374 150 432 150Q489 150 539 173L539 365Z"  horiz-adv-x="770" vert-adv-y="1000"  />

      
      <glyph glyph-name="uni48" unicode="&#x48;" d="M736 700L736 0L538 0L538 273L268 273L268 0L70 0L70 700L268 700L268 437L538 437L538 700L736 700Z"  horiz-adv-x="806" vert-adv-y="1000"  />

      
      <glyph glyph-name="uni49" unicode="&#x49;" d="M70 700L268 700L268 0L70 0L70 700Z"  horiz-adv-x="339" vert-adv-y="1000"  />

      
      <glyph glyph-name="uni4a" unicode="&#x4a;" d="M223-14Q146-14 83 12.50Q20 39-20 89L88 217Q144 144 209 144Q252 144 274.50 170Q297 196 297 246L297 547L55 547L55 700L493 700L493 258Q493 122 424.50 54Q356-14 223-14Z"  horiz-adv-x="557" vert-adv-y="1000"  />

      
      <glyph glyph-name="uni4b" unicode="&#x4b;" d="M340 254L266 175L266 0L70 0L70 700L266 700L266 409L537 700L755 700L469 390L770 0L540 0L340 254Z"  horiz-adv-x="752" vert-adv-y="1000"  />

      
      <glyph glyph-name="uni4c" unicode="&#x4c;" d="M70 700L268 700L268 157L602 157L602 0L70 0L70 700Z"  horiz-adv-x="610" vert-adv-y="1000"  />

      
      <glyph glyph-name="uni4d" unicode="&#x4d;" d="M702 0L700 371L520 69L432 69L253 361L253 0L70 0L70 700L233 700L479 296L719 700L882 700L884 0L702 0Z"  horiz-adv-x="954" vert-adv-y="1000"  />

      
      <glyph glyph-name="uni4e" unicode="&#x4e;" d="M736 700L736 0L573 0L264 373L264 0L70 0L70 700L233 700L542 327L542 700L736 700Z"  horiz-adv-x="806" vert-adv-y="1000"  />

      
      <glyph glyph-name="uni4f" unicode="&#x4f;" d="M423-14Q312-14 223.50 33Q135 80 84.50 163Q34 246 34 350Q34 454 84.50 537Q135 620 223.50 667Q312 714 423 714Q534 714 622.50 667Q711 620 761.50 537Q812 454 812 350Q812 246 761.50 163Q711 80 622.50 33Q534-14 423-14M423 150Q476 150 519 175Q562 200 587 245.50Q612 291 612 350Q612 409 587 454.50Q562 500 519 525Q476 550 423 550Q370 550 327 525Q284 500 259 454.50Q234 409 234 350Q234 291 259 245.50Q284 200 327 175Q370 150 423 150Z"  horiz-adv-x="846" vert-adv-y="1000"  />

      
      <glyph glyph-name="uni50" unicode="&#x50;" d="M390 700Q485 700 555 668.50Q625 637 663 578.50Q701 520 701 441Q701 362 663 304Q625 246 555 214.50Q485 183 390 183L268 183L268 0L70 0L70 700L390 700M378 339Q439 339 470 365.50Q501 392 501 441Q501 490 470 517Q439 544 378 544L268 544L268 339L378 339Z"  horiz-adv-x="737" vert-adv-y="1000"  />

      
      <glyph glyph-name="uni51" unicode="&#x51;" d="M848-81Q813-124 762.50-146.50Q712-169 652-169Q594-169 547-154Q500-139 452.50-104.50Q405-70 346-8Q255 7 184 57Q113 107 73.50 183Q34 259 34 350Q34 454 84.50 537Q135 620 223.50 667Q312 714 423 714Q534 714 622.50 667Q711 620 761.50 537Q812 454 812 350Q812 232 747.50 141.50Q683 51 574 12Q594-10 613.50-19Q633-28 656-28Q715-28 762 21L848-81M234 350Q234 291 259 245.50Q284 200 327 175Q370 150 423 150Q476 150 519 175Q562 200 587 245.50Q612 291 612 350Q612 409 587 454.50Q562 500 519 525Q476 550 423 550Q370 550 327 525Q284 500 259 454.50Q234 409 234 350Z"  horiz-adv-x="846" vert-adv-y="1000"  />

      
      <glyph glyph-name="uni52" unicode="&#x52;" d="M376 186L268 186L268 0L70 0L70 700L390 700Q485 700 555 668.50Q625 637 663 578.50Q701 520 701 441Q701 365 665.50 308.50Q630 252 564 220L715 0L503 0L376 186M501 441Q501 490 470 517Q439 544 378 544L268 544L268 339L378 339Q439 339 470 365.50Q501 392 501 441Z"  horiz-adv-x="740" vert-adv-y="1000"  />

      
      <glyph glyph-name="uni53" unicode="&#x53;" d="M316-14Q231-14 151 7Q71 28 21 63L86 209Q133 178 195 159Q257 140 317 140Q431 140 431 197Q431 227 398.50 241.50Q366 256 294 272Q215 289 162 308.50Q109 328 71 371Q33 414 33 487Q33 551 68 602.50Q103 654 172.50 684Q242 714 343 714Q412 714 479 698.50Q546 683 597 653L536 506Q436 560 342 560Q283 560 256 542.50Q229 525 229 497Q229 469 261 455Q293 441 364 426Q444 409 496.50 389.50Q549 370 587.50 327.50Q626 285 626 212Q626 149 591 98Q556 47 486 16.50Q416-14 316-14Z"  horiz-adv-x="647" vert-adv-y="1000"  />

      
      <glyph glyph-name="uni54" unicode="&#x54;" d="M219 543L4 543L4 700L631 700L631 543L417 543L417 0L219 0L219 543Z"  horiz-adv-x="635" vert-adv-y="1000"  />

      
      <glyph glyph-name="uni55" unicode="&#x55;" d="M393-14Q237-14 150.50 71Q64 156 64 312L64 700L262 700L262 318Q262 150 395 150Q527 150 527 318L527 700L722 700L722 312Q722 156 635.50 71Q549-14 393-14Z"  horiz-adv-x="786" vert-adv-y="1000"  />

      
      <glyph glyph-name="uni56" unicode="&#x56;" d="M780 700L480 0L285 0L-14 700L200 700L390 244L584 700L780 700Z"  horiz-adv-x="766" vert-adv-y="1000"  />

      
      <glyph glyph-name="uni57" unicode="&#x57;" d="M1168 700L941 0L729 0L595 426L455 0L243 0L16 700L220 700L361 253L509 700L691 700L832 249L979 700L1168 700Z"  horiz-adv-x="1184" vert-adv-y="1000"  />

      
      <glyph glyph-name="uni58" unicode="&#x58;" d="M512 0L367 217L224 0L-2 0L253 354L9 700L232 700L372 498L510 700L724 700L480 362L740 0L512 0Z"  horiz-adv-x="737" vert-adv-y="1000"  />

      
      <glyph glyph-name="uni59" unicode="&#x59;" d="M445 251L445 0L247 0L247 254L-20 700L189 700L355 422L521 700L713 700L445 251Z"  horiz-adv-x="693" vert-adv-y="1000"  />

      
      <glyph glyph-name="uni5a" unicode="&#x5a;" d="M662 157L662 0L35 0L35 124L388 543L44 543L44 700L647 700L647 576L294 157L662 157Z"  horiz-adv-x="679" vert-adv-y="1000"  />

      
      <glyph glyph-name="uni5b" unicode="&#x5b;" d="M70 742L376 742L376 597L260 597L260-49L376-49L376-194L70-194L70 742Z"  horiz-adv-x="389" vert-adv-y="1000"  />

      
      <glyph glyph-name="uni5c" unicode="&#x5c;" d="M283-100L-47 842L122 842L452-100L283-100Z"  horiz-adv-x="415" vert-adv-y="1000"  />

      
      <glyph glyph-name="uni5d" unicode="&#x5d;" d="M12-194L12-49L128-49L128 597L12 597L12 742L318 742L318-194L12-194Z"  horiz-adv-x="389" vert-adv-y="1000"  />

      
      <glyph glyph-name="uni5e" unicode="&#x5e;" d="M419 140L305 414L191 140L47 140L230 560L380 560L563 140L419 140Z"  horiz-adv-x="610" vert-adv-y="1000"  />

      
      <glyph glyph-name="uni5f" unicode="&#x5f;" d="M0 0L500 0L500-104L0-104L0 0Z"  horiz-adv-x="500" vert-adv-y="1000"  />

      
      <glyph glyph-name="uni60" unicode="&#x60;" d="M74 759L264 759L398 607L262 607L74 759Z"  horiz-adv-x="600" vert-adv-y="1000"  />

      
      <glyph glyph-name="uni61" unicode="&#x61;" d="M292 551Q427 551 498 489.50Q569 428 569 301L569 0L392 0L392 70Q351-9 232-9Q169-9 123 13Q77 35 53.50 72.50Q30 110 30 158Q30 235 89 277.50Q148 320 271 320L379 320Q374 406 264 406Q225 406 185 393.50Q145 381 117 359L53 488Q98 518 162.50 534.50Q227 551 292 551M285 111Q318 111 343 127Q368 143 379 174L379 221L297 221Q214 221 214 166Q214 141 233 126Q252 111 285 111Z"  horiz-adv-x="628" vert-adv-y="1000"  />

      
      <glyph glyph-name="uni62" unicode="&#x62;" d="M402 551Q476 551 536.50 517Q597 483 632.50 419.50Q668 356 668 272Q668 188 632.50 124Q597 60 536.50 25.50Q476-9 402-9Q295-9 242 54L242 0L61 0L61 742L251 742L251 495Q306 551 402 551M362 142Q412 142 444 176.50Q476 211 476 272Q476 332 444 366Q412 400 362 400Q312 400 280 366Q248 332 248 272Q248 211 280 176.50Q312 142 362 142Z"  horiz-adv-x="695" vert-adv-y="1000"  />

      
      <glyph glyph-name="uni63" unicode="&#x63;" d="M338-9Q248-9 177 27Q106 63 66.50 127Q27 191 27 272Q27 353 66.50 416.50Q106 480 177 515.50Q248 551 338 551Q430 551 497 511.50Q564 472 592 402L445 327Q408 400 337 400Q286 400 252.50 366Q219 332 219 272Q219 211 252.50 176.50Q286 142 337 142Q408 142 445 215L592 140Q564 70 497 30.50Q430-9 338-9Z"  horiz-adv-x="603" vert-adv-y="1000"  />

      
      <glyph glyph-name="uni64" unicode="&#x64;" d="M637 742L637 0L456 0L456 54Q403-9 297-9Q223-9 162 25.50Q101 60 65.50 124Q30 188 30 272Q30 356 65.50 419.50Q101 483 162 517Q223 551 297 551Q394 551 447 495L447 742L637 742M337 142Q386 142 418 176.50Q450 211 450 272Q450 332 418.50 366Q387 400 337 400Q287 400 255 366Q223 332 223 272Q223 211 255 176.50Q287 142 337 142Z"  horiz-adv-x="698" vert-adv-y="1000"  />

      
      <glyph glyph-name="uni65" unicode="&#x65;" d="M615 270Q615 268 612 223L218 223Q230 181 264.50 158.50Q299 136 351 136Q390 136 418.50 147Q447 158 476 183L576 79Q497-9 345-9Q250-9 178 27Q106 63 66.50 127Q27 191 27 272Q27 352 65.50 415.50Q104 479 172 515Q240 551 325 551Q406 551 472 517.50Q538 484 576.50 420.50Q615 357 615 270M326 416Q282 416 252.50 391Q223 366 215 323L437 323Q429 366 399.50 391Q370 416 326 416Z"  horiz-adv-x="642" vert-adv-y="1000"  />

      
      <glyph glyph-name="uni66" unicode="&#x66;" d="M268 522L397 522L397 380L273 380L273 0L83 0L83 380L4 380L4 522L83 522L83 536Q83 635 142.50 693Q202 751 309 751Q345 751 379 744Q413 737 435 723L388 589Q360 605 331 605Q301 605 284.50 587Q268 569 268 534L268 522Z"  horiz-adv-x="406" vert-adv-y="1000"  />

      
      <glyph glyph-name="uni67" unicode="&#x67;" d="M644 542L644 99Q644-52 562-127.50Q480-203 326-203Q246-203 176-185Q106-167 57-132L126 1Q159-26 209.50-41.50Q260-57 309-57Q384-57 419-24Q454 9 454 74L454 92Q399 28 293 28Q221 28 160 60.50Q99 93 63 152.50Q27 212 27 290Q27 367 63 426.50Q99 486 160 518.50Q221 551 293 551Q409 551 463 476L463 542L644 542M338 179Q389 179 422.50 210Q456 241 456 290Q456 339 423 369.50Q390 400 338 400Q286 400 252.50 369.50Q219 339 219 290Q219 241 253 210Q287 179 338 179Z"  horiz-adv-x="705" vert-adv-y="1000"  />

      
      <glyph glyph-name="uni68" unicode="&#x68;" d="M414 551Q515 551 576.50 491Q638 431 638 310L638 0L448 0L448 279Q448 390 359 390Q310 390 280.50 358Q251 326 251 262L251 0L61 0L61 742L251 742L251 492Q282 521 324 536Q366 551 414 551Z"  horiz-adv-x="696" vert-adv-y="1000"  />

      
      <glyph glyph-name="uni69" unicode="&#x69;" d="M61 542L251 542L251 0L61 0L61 542M156 602Q104 602 72 631Q40 660 40 703Q40 746 72 775Q104 804 156 804Q208 804 240 776.50Q272 749 272 706Q272 661 240 631.50Q208 602 156 602Z"  horiz-adv-x="313" vert-adv-y="1000"  />

      
      <glyph glyph-name="uni6a" unicode="&#x6a;" d="M38-203Q-45-203-94-175L-46-40Q-20-56 13-56Q39-56 54-38Q69-20 69 15L69 542L259 542L259 14Q259-86 200.50-144.50Q142-203 38-203M164 602Q112 602 80 631Q48 660 48 703Q48 746 80 775Q112 804 164 804Q216 804 248 776.50Q280 749 280 706Q280 661 248 631.50Q216 602 164 602Z"  horiz-adv-x="320" vert-adv-y="1000"  />

      
      <glyph glyph-name="uni6b" unicode="&#x6b;" d="M307 190L251 133L251 0L61 0L61 742L251 742L251 353L445 542L670 542L445 310L689 0L459 0L307 190Z"  horiz-adv-x="686" vert-adv-y="1000"  />

      
      <glyph glyph-name="uni6c" unicode="&#x6c;" d="M61 742L251 742L251 0L61 0L61 742Z"  horiz-adv-x="313" vert-adv-y="1000"  />

      
      <glyph glyph-name="uni6d" unicode="&#x6d;" d="M767 551Q867 551 926.50 491Q986 431 986 310L986 0L796 0L796 279Q796 336 774.50 363Q753 390 714 390Q671 390 645 360Q619 330 619 269L619 0L429 0L429 279Q429 390 347 390Q303 390 277 360Q251 330 251 269L251 0L61 0L61 542L242 542L242 485Q272 518 313.50 534.50Q355 551 404 551Q461 551 506 530Q551 509 579 466Q611 507 660 529Q709 551 767 551Z"  horiz-adv-x="1045" vert-adv-y="1000"  />

      
      <glyph glyph-name="uni6e" unicode="&#x6e;" d="M414 551Q515 551 576.50 491Q638 431 638 310L638 0L448 0L448 279Q448 390 359 390Q310 390 280.50 358Q251 326 251 262L251 0L61 0L61 542L242 542L242 483Q274 516 318 533.50Q362 551 414 551Z"  horiz-adv-x="696" vert-adv-y="1000"  />

      
      <glyph glyph-name="uni6f" unicode="&#x6f;" d="M333-9Q246-9 176 27Q106 63 66.50 127Q27 191 27 272Q27 352 66.50 416Q106 480 175.50 515.50Q245 551 333 551Q421 551 491 515.50Q561 480 600 416.50Q639 353 639 272Q639 191 600 127Q561 63 491 27Q421-9 333-9M333 142Q383 142 415 176.50Q447 211 447 272Q447 332 415 366Q383 400 333 400Q283 400 251 366Q219 332 219 272Q219 211 251 176.50Q283 142 333 142Z"  horiz-adv-x="666" vert-adv-y="1000"  />

      
      <glyph glyph-name="uni70" unicode="&#x70;" d="M402 551Q476 551 536.50 516.50Q597 482 632.50 418.50Q668 355 668 271Q668 187 632.50 123.50Q597 60 536.50 25.50Q476-9 402-9Q307-9 251 48L251-194L61-194L61 542L242 542L242 488Q295 551 402 551M362 142Q412 142 444 176.50Q476 211 476 271Q476 331 444 365.50Q412 400 362 400Q312 400 280 365.50Q248 331 248 271Q248 211 280 176.50Q312 142 362 142Z"  horiz-adv-x="695" vert-adv-y="1000"  />

      
      <glyph glyph-name="uni71" unicode="&#x71;" d="M634 542L634-194L444-194L444 48Q389-9 293-9Q219-9 158.50 25.50Q98 60 62.50 123.50Q27 187 27 271Q27 355 62.50 418.50Q98 482 158.50 516.50Q219 551 293 551Q400 551 453 488L453 542L634 542M333 142Q383 142 415 176.50Q447 211 447 271Q447 331 415 365.50Q383 400 333 400Q283 400 251 365.50Q219 331 219 271Q219 211 251 176.50Q283 142 333 142Z"  horiz-adv-x="695" vert-adv-y="1000"  />

      
      <glyph glyph-name="uni72" unicode="&#x72;" d="M242 477Q271 514 317.50 532.50Q364 551 424 551L424 380Q398 383 381 383Q320 383 285.50 350Q251 317 251 249L251 0L61 0L61 542L242 542L242 477Z"  horiz-adv-x="443" vert-adv-y="1000"  />

      
      <glyph glyph-name="uni73" unicode="&#x73;" d="M258-9Q190-9 124 6.50Q58 22 18 47L75 177Q112 154 163 140.50Q214 127 264 127Q310 127 329.50 136.50Q349 146 349 164Q349 182 325.50 189.50Q302 197 251 204Q186 212 140.50 225Q95 238 62 273Q29 308 29 371Q29 423 60 463.50Q91 504 150.50 527.50Q210 551 293 551Q352 551 410 539Q468 527 507 505L450 376Q378 416 294 416Q249 416 228 405.50Q207 395 207 378Q207 359 230 351.50Q253 344 306 336Q373 326 417 313Q461 300 493.50 265.50Q526 231 526 169Q526 118 495 77.50Q464 37 403.50 14Q343-9 258-9Z"  horiz-adv-x="547" vert-adv-y="1000"  />

      
      <glyph glyph-name="uni74" unicode="&#x74;" d="M435 22Q411 7 376.50-1Q342-9 303-9Q197-9 140 43Q83 95 83 198L83 380L4 380L4 522L83 522L83 663L273 663L273 522L397 522L397 380L273 380L273 200Q273 171 288.50 154.50Q304 138 330 138Q363 138 388 155L435 22Z"  horiz-adv-x="447" vert-adv-y="1000"  />

      
      <glyph glyph-name="uni75" unicode="&#x75;" d="M631 542L631 0L450 0L450 58Q420 25 378 8Q336-9 289-9Q184-9 121.50 53Q59 115 59 239L59 542L249 542L249 270Q249 209 272 181Q295 153 339 153Q384 153 412.50 184.50Q441 216 441 281L441 542L631 542Z"  horiz-adv-x="692" vert-adv-y="1000"  />

      
      <glyph glyph-name="uni76" unicode="&#x76;" d="M632 542L408 0L212 0L-11 542L184 542L314 211L451 542L632 542Z"  horiz-adv-x="620" vert-adv-y="1000"  />

      
      <glyph glyph-name="uni77" unicode="&#x77;" d="M959 542L766 0L582 0L480 295L374 0L190 0L-3 542L177 542L288 214L403 542L565 542L677 211L792 542L959 542Z"  horiz-adv-x="956" vert-adv-y="1000"  />

      
      <glyph glyph-name="uni78" unicode="&#x78;" d="M405 0L308 142L204 0L-2 0L204 271L4 542L218 542L314 405L414 542L615 542L415 278L622 0L405 0Z"  horiz-adv-x="619" vert-adv-y="1000"  />

      
      <glyph glyph-name="uni79" unicode="&#x79;" d="M632 542L398-22Q357-122 298-162.50Q239-203 154-203Q111-203 67.50-189.50Q24-176-3-154L63-21Q79-36 101.50-44.50Q124-53 147-53Q174-53 191.50-42Q209-31 221-7L-11 542L184 542L317 211L451 542L632 542Z"  horiz-adv-x="620" vert-adv-y="1000"  />

      
      <glyph glyph-name="uni7a" unicode="&#x7a;" d="M533 142L533 0L33 0L33 112L284 401L40 401L40 542L523 542L523 431L272 142L533 142Z"  horiz-adv-x="556" vert-adv-y="1000"  />

      
      <glyph glyph-name="uni7b" unicode="&#x7b;" d="M315 397Q315 342 297.50 313.50Q280 285 240 274Q280 263 297.50 234.50Q315 206 315 151L315 23Q315-12 333-30.50Q351-49 387-49L401-49L401-194L336-194Q232-194 178.50-143.50Q125-93 125 1L125 156Q125 179 113.50 190Q102 201 82 201L48 201L48 347L82 347Q102 347 113.50 358Q125 369 125 392L125 547Q125 641 178.50 691.50Q232 742 336 742L401 742L401 597L387 597Q351 597 333 578.50Q315 560 315 525L315 397Z"  horiz-adv-x="414" vert-adv-y="1000"  />

      
      <glyph glyph-name="uni7c" unicode="&#x7c;" d="M70 742L244 742L244-194L70-194L70 742Z"  horiz-adv-x="314" vert-adv-y="1000"  />

      
      <glyph glyph-name="uni7d" unicode="&#x7d;" d="M365 347L365 201L332 201Q312 201 300.50 190Q289 179 289 156L289 1Q289-93 235.50-143.50Q182-194 78-194L12-194L12-49L27-49Q63-49 81-30.50Q99-12 99 23L99 151Q99 206 116.50 234.50Q134 263 174 274Q134 285 116.50 313.50Q99 342 99 397L99 525Q99 560 81 578.50Q63 597 27 597L12 597L12 742L78 742Q182 742 235.50 691.50Q289 641 289 547L289 392Q289 369 300.50 358Q312 347 332 347L365 347Z"  horiz-adv-x="414" vert-adv-y="1000"  />

      
      <glyph glyph-name="uni7e" unicode="&#x7e;" d="M404 243Q369 243 342.50 256Q316 269 282 293Q260 309 246.50 316.50Q233 324 219 324Q194 324 178.50 305.50Q163 287 162 254L45 254Q46 351 90 405Q134 459 205 459Q241 459 267.50 446Q294 433 328 409Q350 393 363.50 385.50Q377 378 391 378Q416 378 430.50 397Q445 416 447 449L564 449Q563 351 519 297Q475 243 404 243Z"  horiz-adv-x="609" vert-adv-y="1000"  />

      
      <glyph glyph-name="unia1" unicode="&#xa1;" d="M151 551Q200 551 232 520.50Q264 490 264 446Q264 402 232.50 372.50Q201 343 151 343Q101 343 69 372.50Q37 402 37 446Q37 490 69 520.50Q101 551 151 551M264-154L38-154L75 287L226 287L264-154Z"  horiz-adv-x="301" vert-adv-y="1000"  />

      
      <glyph glyph-name="unia2" unicode="&#xa2;" d="M337 142Q408 142 445 215L592 140Q568 79 515 41.50Q462 4 388-6L388-120L268-120L268-3Q159 17 93 91.50Q27 166 27 272Q27 342 57 399Q87 456 141.50 494Q196 532 268 545L268 662L388 662L388 548Q462 538 515 500.50Q568 463 592 402L445 327Q408 400 337 400Q286 400 252.50 366Q219 332 219 272Q219 211 252.50 176.50Q286 142 337 142Z"  horiz-adv-x="603" vert-adv-y="1000"  />

      
      <glyph glyph-name="unia3" unicode="&#xa3;" d="M323 153L648 153L648 0L30 0L30 153L125 153L125 293L30 293L30 407L125 407L125 413Q125 556 214.50 635Q304 714 466 714Q589 714 670 669L612 517Q556 550 476 550Q402 550 362.50 516.50Q323 483 323 417L323 407L549 407L549 293L323 293L323 153Z"  horiz-adv-x="681" vert-adv-y="1000"  />

      
      <glyph glyph-name="unia4" unicode="&#xa4;" d="M608 322Q608 257 576 198L678 96L572-11L467 93Q411 65 349 65Q286 65 232 93L127-11L22 96L123 198Q91 257 91 322Q91 387 120 440L22 539L127 646L226 548Q283 579 349 579Q416 579 473 548L572 646L678 539L579 440Q608 387 608 322M349 214Q395 214 428 245.50Q461 277 461 322Q461 367 428 399Q395 431 349 431Q303 431 271 399Q239 367 239 322Q239 277 271 245.50Q303 214 349 214Z"  horiz-adv-x="700" vert-adv-y="1000"  />

      
      <glyph glyph-name="unia5" unicode="&#xa5;" d="M514 311L649 311L649 214L475 214L475 173L649 173L649 76L475 76L475 0L277 0L277 76L103 76L103 173L277 173L277 214L103 214L103 311L240 311L-20 700L191 700L384 414L578 700L773 700L514 311Z"  horiz-adv-x="753" vert-adv-y="1000"  />

      
      <glyph glyph-name="unia6" unicode="&#xa6;" d="M70 742L244 742L244 392L70 392L70 742M70 156L244 156L244-194L70-194L70 156Z"  horiz-adv-x="314" vert-adv-y="1000"  />

      
      <glyph glyph-name="unia7" unicode="&#xa7;" d="M509 303Q509 268 494 237Q479 206 450 182Q490 142 490 77Q490 23 462-19Q434-61 380-85Q326-109 250-109Q186-109 121.50-93Q57-77 19-52L72 77Q108 53 158 38.50Q208 24 250 24Q286 24 304.50 36.50Q323 49 323 71Q323 95 298 106Q273 117 219 127Q158 140 119.50 153.50Q81 167 52.50 200Q24 233 24 290Q24 371 83 419Q44 456 44 522Q44 606 112 657.50Q180 709 310 709Q360 709 421 697Q482 685 518 663L465 534Q392 576 300 576Q211 576 211 529Q211 509 234 499Q257 489 307 479Q368 466 408.50 450.50Q449 435 479 399.50Q509 364 509 303M188 304Q188 286 203.50 275Q219 264 239.50 258.50Q260 253 309 242Q326 251 335.50 265.50Q345 280 345 297Q345 315 329.50 326Q314 337 293.50 342.50Q273 348 224 359Q188 338 188 304Z"  horiz-adv-x="535" vert-adv-y="1000"  />

      
      <glyph glyph-name="unia8" unicode="&#xa8;" d="M194 606Q160 606 137.50 627.50Q115 649 115 684Q115 719 137.50 741Q160 763 194 763Q228 763 250.50 741Q273 719 273 684Q273 649 250.50 627.50Q228 606 194 606M406 606Q372 606 349.50 627.50Q327 649 327 684Q327 719 349.50 741Q372 763 406 763Q440 763 462.50 741Q485 719 485 684Q485 649 462.50 627.50Q440 606 406 606Z"  horiz-adv-x="600" vert-adv-y="1000"  />

      
      <glyph glyph-name="unia9" unicode="&#xa9;" d="M386-3Q288-3 207.50 44Q127 91 80.50 172Q34 253 34 350Q34 447 80.50 528Q127 609 208 656Q289 703 388 703Q487 703 567.50 657Q648 611 694 530.50Q740 450 740 352Q740 254 693 172.50Q646 91 565 44Q484-3 386-3M386 73Q463 73 525.50 110Q588 147 623.50 210.50Q659 274 659 352Q659 430 624.50 492.50Q590 555 528 591Q466 627 388 627Q310 627 247.50 590.50Q185 554 150 490.50Q115 427 115 350Q115 273 150 209.50Q185 146 247 109.50Q309 73 386 73M401 150Q339 150 290 175.50Q241 201 213.50 246.50Q186 292 186 350Q186 408 213.50 453.50Q241 499 290 524.50Q339 550 401 550Q464 550 510 522Q556 494 576 446L468 387Q445 431 400 431Q369 431 347.50 409.50Q326 388 326 350Q326 312 347.50 290.50Q369 269 400 269Q445 269 468 313L576 254Q556 206 510 178Q464 150 401 150Z"  horiz-adv-x="775" vert-adv-y="1000"  />

      
      <glyph glyph-name="uniaa" unicode="&#xaa;" d="M191 751Q373 751 373 600L373 422L253 422L253 464Q227 417 151 417Q90 417 56.50 445Q23 473 23 517Q23 613 176 613L243 613Q238 660 171 660Q148 660 122.50 652.50Q97 645 79 632L37 712Q66 730 108 740.50Q150 751 191 751M188 492Q207 492 221.50 500.50Q236 509 243 525L243 551L196 551Q145 551 145 522Q145 508 156.50 500Q168 492 188 492Z"  horiz-adv-x="417" vert-adv-y="1000"  />

      
      <glyph glyph-name="uniab" unicode="&#xab;" d="M31 272L170 469L339 469L204 272L339 74L170 74L31 272M276 272L415 469L584 469L449 272L584 74L415 74L276 272Z"  horiz-adv-x="605" vert-adv-y="1000"  />

      
      <glyph glyph-name="uniac" unicode="&#xac;" d="M551 105L397 105L397 278L58 278L58 423L551 423L551 105Z"  horiz-adv-x="609" vert-adv-y="1000"  />

      
      <glyph glyph-name="uniad" unicode="&#xad;" d="M48 358L340 358L340 212L48 212L48 358Z"  horiz-adv-x="388" vert-adv-y="1000"  />

      
      <glyph glyph-name="uniae" unicode="&#xae;" d="M388 703Q487 703 567.50 657Q648 611 694 530.50Q740 450 740 352Q740 254 693 172.50Q646 91 565 44Q484-3 386-3Q288-3 207.50 44Q127 91 80.50 172Q34 253 34 350Q34 447 80.50 528Q127 609 208 656Q289 703 388 703M589 161Q623 199 641 248Q659 297 659 352Q659 430 624.50 492.50Q590 555 528 591Q466 627 388 627Q310 627 247.50 590.50Q185 554 150 490.50Q115 427 115 350Q115 273 150 209.50Q185 146 247 109.50Q309 73 386 73Q446 73 497.50 95.50Q549 118 586 159L465 159L398 263L351 263L351 159L228 159L228 541L402 541Q482 541 528 503.50Q574 466 574 402Q574 320 508 285L589 161M394 351Q421 351 436.50 364.50Q452 378 452 402Q452 426 437 439.50Q422 453 394 453L351 453L351 351L394 351Z"  horiz-adv-x="775" vert-adv-y="1000"  />

      
      <glyph glyph-name="uniaf" unicode="&#xaf;" d="M103 734L497 734L497 632L103 632L103 734Z"  horiz-adv-x="600" vert-adv-y="1000"  />

      
      <glyph glyph-name="unib0" unicode="&#xb0;" d="M208 358Q159 358 117.50 381.50Q76 405 51.50 445Q27 485 27 534Q27 583 51.50 623Q76 663 117.50 686.50Q159 710 208 710Q258 710 299.50 686.50Q341 663 365.50 623Q390 583 390 534Q390 485 365.50 445Q341 405 299.50 381.50Q258 358 208 358M208 448Q245 448 269 472.50Q293 497 293 534Q293 570 269 594.50Q245 619 208 619Q172 619 148 594.50Q124 570 124 534Q124 497 148 472.50Q172 448 208 448Z"  horiz-adv-x="417" vert-adv-y="1000"  />

      
      <glyph glyph-name="unib1" unicode="&#xb1;" d="M551 518L551 379L382 379L382 221L228 221L228 379L58 379L58 518L228 518L228 676L382 676L382 518L551 518M58 145L551 145L551 0L58 0L58 145Z"  horiz-adv-x="609" vert-adv-y="1000"  />

      
      <glyph glyph-name="unib2" unicode="&#xb2;" d="M395 426L395 327L38 327L38 406L204 549Q229 570 238 584.50Q247 599 247 612Q247 629 233 639.50Q219 650 190 650Q163 650 142.50 639.50Q122 629 110 609L13 661Q37 703 85 727Q133 751 202 751Q283 751 332 715.50Q381 680 381 622Q381 590 364 561Q347 532 301 491L225 426L395 426Z"  horiz-adv-x="430" vert-adv-y="1000"  />

      
      <glyph glyph-name="unib3" unicode="&#xb3;" d="M290 578Q346 568 376 536Q406 504 406 458Q406 421 384 389Q362 357 316 337.50Q270 318 202 318Q147 318 96 330Q45 342 14 363L59 457Q89 439 126.50 429Q164 419 200 419Q272 419 272 458Q272 494 208 494L143 494L143 573L221 645L34 645L34 742L382 742L382 663L290 578Z"  horiz-adv-x="430" vert-adv-y="1000"  />

      
      <glyph glyph-name="unib4" unicode="&#xb4;" d="M336 759L526 759L338 607L202 607L336 759Z"  horiz-adv-x="600" vert-adv-y="1000"  />

      
      <glyph glyph-name="unib5" unicode="&#xb5;" d="M634 542L634 0L466 0L466 60Q443 24 409.50 7.50Q376-9 338-9Q287-9 251 15L251-194L61-194L61 542L251 542L251 270Q251 153 342 153Q387 153 415.50 184.50Q444 216 444 281L444 542L634 542Z"  horiz-adv-x="695" vert-adv-y="1000"  />

      
      <glyph glyph-name="unib6" unicode="&#xb6;" d="M228 347Q167 349 117.50 373.50Q68 398 39.50 442Q11 486 11 544Q11 604 42 649Q73 694 129.50 718Q186 742 261 742L637 742L637-100L483-100L483 609L382 609L382-100L228-100L228 347Z"  horiz-adv-x="707" vert-adv-y="1000"  />

      
      <glyph glyph-name="unib7" unicode="&#xb7;" d="M161 172Q111 172 79 203.50Q47 235 47 286Q47 337 79 368Q111 399 161 399Q212 399 243.50 368Q275 337 275 286Q275 235 243.50 203.50Q212 172 161 172Z"  horiz-adv-x="323" vert-adv-y="1000"  />

      
      <glyph glyph-name="unib8" unicode="&#xb8;" d="M263-236Q238-236 211.50-230Q185-224 168-215L194-140Q224-154 256-154Q306-154 306-126Q306-101 261-101L224-101L250 9L349 9L335-51Q379-56 400-78.50Q421-101 421-132Q421-180 378-208Q335-236 263-236Z"  horiz-adv-x="600" vert-adv-y="1000"  />

      
      <glyph glyph-name="unib9" unicode="&#xb9;" d="M382 424L382 327L69 327L69 424L164 424L164 645L78 645L78 742L300 742L300 424L382 424Z"  horiz-adv-x="430" vert-adv-y="1000"  />

      
      <glyph glyph-name="uniba" unicode="&#xba;" d="M216 417Q160 417 115.50 438.50Q71 460 45.50 498Q20 536 20 584Q20 632 45.50 670Q71 708 115.50 729.50Q160 751 216 751Q273 751 317.50 729.50Q362 708 387 670Q412 632 412 584Q412 536 387 498Q362 460 317.50 438.50Q273 417 216 417M216 513Q246 513 265 532Q284 551 284 584Q284 618 265 636.50Q246 655 216 655Q186 655 167 636.50Q148 618 148 584Q148 551 167 532Q186 513 216 513Z"  horiz-adv-x="432" vert-adv-y="1000"  />

      
      <glyph glyph-name="unibb" unicode="&#xbb;" d="M20 74L155 272L20 469L189 469L329 272L189 74L20 74M265 74L400 272L265 469L434 469L574 272L434 74L265 74Z"  horiz-adv-x="605" vert-adv-y="1000"  />

      
      <glyph glyph-name="unibc" unicode="&#xbc;" d="M382 382L382 285L69 285L69 382L164 382L164 603L78 603L78 700L300 700L300 382L382 382M693 700L836 700L358 0L215 0L693 700M1035 76L977 76L977 0L848 0L848 76L626 76L626 158L808 415L950 415L779 175L862 175L862 238L977 238L977 175L1035 175L1035 76Z"  horiz-adv-x="1050" vert-adv-y="1000"  />

      
      <glyph glyph-name="unibd" unicode="&#xbd;" d="M382 382L382 285L69 285L69 382L164 382L164 603L78 603L78 700L300 700L300 382L382 382M693 700L836 700L358 0L215 0L693 700M1015 99L1015 0L658 0L658 79L824 222Q849 243 858 257.50Q867 272 867 285Q867 302 853 312.50Q839 323 810 323Q783 323 762.50 312.50Q742 302 730 282L633 334Q657 376 705 400Q753 424 822 424Q903 424 952 388.50Q1001 353 1001 295Q1001 263 984 234Q967 205 921 164L845 99L1015 99Z"  horiz-adv-x="1050" vert-adv-y="1000"  />

      
      <glyph glyph-name="unibe" unicode="&#xbe;" d="M290 536Q346 526 376 494Q406 462 406 416Q406 379 384 347Q362 315 316 295.50Q270 276 202 276Q147 276 96 288Q45 300 14 321L59 415Q89 397 126.50 387Q164 377 200 377Q272 377 272 416Q272 452 208 452L143 452L143 531L221 603L34 603L34 700L382 700L382 621L290 536M693 700L836 700L358 0L215 0L693 700M1035 76L977 76L977 0L848 0L848 76L626 76L626 158L808 415L950 415L779 175L862 175L862 238L977 238L977 175L1035 175L1035 76Z"  horiz-adv-x="1050" vert-adv-y="1000"  />

      
      <glyph glyph-name="unibf" unicode="&#xbf;" d="M296 343Q246 343 214 372.50Q182 402 182 446Q182 490 214 520.50Q246 551 296 551Q345 551 377 520.50Q409 490 409 446Q409 402 377.50 372.50Q346 343 296 343M307-167Q188-167 115.50-118Q43-69 43 19Q43 60 57 91Q71 122 90.50 143Q110 164 142 192Q176 222 191.50 241.50Q207 261 207 287L385 287Q385 239 363 206.50Q341 174 299 135Q270 108 256 89.50Q242 71 242 50Q242 23 266.50 6Q291-11 330-11Q370-11 402.50 8Q435 27 455 60L604-19Q563-89 488-128Q413-167 307-167Z"  horiz-adv-x="597" vert-adv-y="1000"  />

      
      <glyph glyph-name="unic0" unicode="&#xc0;" d="M539 136L243 136L188 0L-14 0L295 700L490 700L800 0L594 0L539 136M481 282L391 506L301 282L481 282M167 909L357 909L491 757L355 757L167 909Z"  horiz-adv-x="786" vert-adv-y="1000"  />

      
      <glyph glyph-name="unic1" unicode="&#xc1;" d="M539 136L243 136L188 0L-14 0L295 700L490 700L800 0L594 0L539 136M481 282L391 506L301 282L481 282M429 909L619 909L431 757L295 757L429 909Z"  horiz-adv-x="786" vert-adv-y="1000"  />

      
      <glyph glyph-name="unic2" unicode="&#xc2;" d="M539 136L243 136L188 0L-14 0L295 700L490 700L800 0L594 0L539 136M481 282L391 506L301 282L481 282M479 757L393 833L307 757L181 757L311 909L475 909L605 757L479 757Z"  horiz-adv-x="786" vert-adv-y="1000"  />

      
      <glyph glyph-name="unic3" unicode="&#xc3;" d="M539 136L243 136L188 0L-14 0L295 700L490 700L800 0L594 0L539 136M481 282L391 506L301 282L481 282M471 750Q444 750 422.50 760.50Q401 771 375 789Q356 802 346.50 807Q337 812 327 812Q307 812 295 798Q283 784 281 759L188 759Q190 832 224 875Q258 918 315 918Q342 918 363 908Q384 898 411 880Q430 867 439.50 862Q449 857 459 857Q479 857 491 870.50Q503 884 505 907L598 907Q596 836 562 793Q528 750 471 750Z"  horiz-adv-x="786" vert-adv-y="1000"  />

      
      <glyph glyph-name="unic4" unicode="&#xc4;" d="M539 136L243 136L188 0L-14 0L295 700L490 700L800 0L594 0L539 136M481 282L391 506L301 282L481 282M287 756Q253 756 230.50 777.50Q208 799 208 834Q208 869 230.50 891Q253 913 287 913Q321 913 343.50 891Q366 869 366 834Q366 799 343.50 777.50Q321 756 287 756M499 756Q465 756 442.50 777.50Q420 799 420 834Q420 869 442.50 891Q465 913 499 913Q533 913 555.50 891Q578 869 578 834Q578 799 555.50 777.50Q533 756 499 756Z"  horiz-adv-x="786" vert-adv-y="1000"  />

      
      <glyph glyph-name="unic5" unicode="&#xc5;" d="M539 136L243 136L188 0L-14 0L295 700L490 700L800 0L594 0L539 136M481 282L391 506L301 282L481 282M393 749Q337 749 299 786Q261 823 261 876Q261 930 299 967Q337 1004 393 1004Q429 1004 459.50 987Q490 970 507.50 940.50Q525 911 525 876Q525 823 486.50 786Q448 749 393 749M393 819Q417 819 433.50 835Q450 851 450 876Q450 901 433.50 917.50Q417 934 393 934Q369 934 352.50 917.50Q336 901 336 876Q336 851 352.50 835Q369 819 393 819Z"  horiz-adv-x="786" vert-adv-y="1000"  />

      
      <glyph glyph-name="unic6" unicode="&#xc6;" d="M1059 153L1059 0L497 0L497 136L259 136L188 0L-14 0L368 700L1046 700L1046 547L693 547L693 429L1004 429L1004 281L693 281L693 153L1059 153M497 282L497 547L474 547L336 282L497 282Z"  horiz-adv-x="1099" vert-adv-y="1000"  />

      
      <glyph glyph-name="unic7" unicode="&#xc7;" d="M419-14Q309-14 221.50 32.50Q134 79 84 162Q34 245 34 350Q34 455 84 538Q134 621 221.50 667.50Q309 714 419 714Q515 714 592 680Q669 646 720 582L594 468Q526 550 429 550Q372 550 327.50 525Q283 500 258.50 454.50Q234 409 234 350Q234 291 258.50 245.50Q283 200 327.50 175Q372 150 429 150Q526 150 594 232L720 118Q669 54 592 20Q515-14 419-14M358-236Q333-236 306.50-230Q280-224 263-215L289-140Q319-154 351-154Q401-154 401-126Q401-101 356-101L319-101L345 9L444 9L430-51Q474-56 495-78.50Q516-101 516-132Q516-180 473-208Q430-236 358-236Z"  horiz-adv-x="738" vert-adv-y="1000"  />

      
      <glyph glyph-name="unic8" unicode="&#xc8;" d="M632 153L632 0L70 0L70 700L619 700L619 547L266 547L266 429L577 429L577 281L266 281L266 153L632 153M119 909L309 909L443 757L307 757L119 909Z"  horiz-adv-x="672" vert-adv-y="1000"  />

      
      <glyph glyph-name="unic9" unicode="&#xc9;" d="M632 153L632 0L70 0L70 700L619 700L619 547L266 547L266 429L577 429L577 281L266 281L266 153L632 153M381 909L571 909L383 757L247 757L381 909Z"  horiz-adv-x="672" vert-adv-y="1000"  />

      
      <glyph glyph-name="unica" unicode="&#xca;" d="M632 153L632 0L70 0L70 700L619 700L619 547L266 547L266 429L577 429L577 281L266 281L266 153L632 153M431 757L345 833L259 757L133 757L263 909L427 909L557 757L431 757Z"  horiz-adv-x="672" vert-adv-y="1000"  />

      
      <glyph glyph-name="unicb" unicode="&#xcb;" d="M632 153L632 0L70 0L70 700L619 700L619 547L266 547L266 429L577 429L577 281L266 281L266 153L632 153M239 756Q205 756 182.50 777.50Q160 799 160 834Q160 869 182.50 891Q205 913 239 913Q273 913 295.50 891Q318 869 318 834Q318 799 295.50 777.50Q273 756 239 756M451 756Q417 756 394.50 777.50Q372 799 372 834Q372 869 394.50 891Q417 913 451 913Q485 913 507.50 891Q530 869 530 834Q530 799 507.50 777.50Q485 756 451 756Z"  horiz-adv-x="672" vert-adv-y="1000"  />

      
      <glyph glyph-name="unicc" unicode="&#xcc;" d="M70 700L268 700L268 0L70 0L70 700M-57 909L133 909L267 757L131 757L-57 909Z"  horiz-adv-x="339" vert-adv-y="1000"  />

      
      <glyph glyph-name="unicd" unicode="&#xcd;" d="M70 700L268 700L268 0L70 0L70 700M205 909L395 909L207 757L71 757L205 909Z"  horiz-adv-x="339" vert-adv-y="1000"  />

      
      <glyph glyph-name="unice" unicode="&#xce;" d="M70 700L268 700L268 0L70 0L70 700M255 757L169 833L83 757L-43 757L87 909L251 909L381 757L255 757Z"  horiz-adv-x="339" vert-adv-y="1000"  />

      
      <glyph glyph-name="unicf" unicode="&#xcf;" d="M70 700L268 700L268 0L70 0L70 700M63 756Q29 756 6.50 777.50Q-16 799-16 834Q-16 869 6.50 891Q29 913 63 913Q97 913 119.50 891Q142 869 142 834Q142 799 119.50 777.50Q97 756 63 756M275 756Q241 756 218.50 777.50Q196 799 196 834Q196 869 218.50 891Q241 913 275 913Q309 913 331.50 891Q354 869 354 834Q354 799 331.50 777.50Q309 756 275 756Z"  horiz-adv-x="339" vert-adv-y="1000"  />

      
      <glyph glyph-name="unid0" unicode="&#xd0;" d="M87 700L418 700Q533 700 622 657Q711 614 760 535Q809 456 809 350Q809 244 760 165Q711 86 622 43Q533 0 418 0L87 0L87 700M410 158Q500 158 554.50 209Q609 260 609 350Q609 440 554.50 491Q500 542 410 542L285 542L285 158L410 158M-3 416L447 416L447 294L-3 294L-3 416Z"  horiz-adv-x="843" vert-adv-y="1000"  />

      
      <glyph glyph-name="unid1" unicode="&#xd1;" d="M736 700L736 0L573 0L264 373L264 0L70 0L70 700L233 700L542 327L542 700L736 700M481 750Q454 750 432.50 760.50Q411 771 385 789Q366 802 356.50 807Q347 812 337 812Q317 812 305 798Q293 784 291 759L198 759Q200 832 234 875Q268 918 325 918Q352 918 373 908Q394 898 421 880Q440 867 449.50 862Q459 857 469 857Q489 857 501 870.50Q513 884 515 907L608 907Q606 836 572 793Q538 750 481 750Z"  horiz-adv-x="806" vert-adv-y="1000"  />

      
      <glyph glyph-name="unid2" unicode="&#xd2;" d="M423-14Q312-14 223.50 33Q135 80 84.50 163Q34 246 34 350Q34 454 84.50 537Q135 620 223.50 667Q312 714 423 714Q534 714 622.50 667Q711 620 761.50 537Q812 454 812 350Q812 246 761.50 163Q711 80 622.50 33Q534-14 423-14M423 150Q476 150 519 175Q562 200 587 245.50Q612 291 612 350Q612 409 587 454.50Q562 500 519 525Q476 550 423 550Q370 550 327 525Q284 500 259 454.50Q234 409 234 350Q234 291 259 245.50Q284 200 327 175Q370 150 423 150M197 909L387 909L521 757L385 757L197 909Z"  horiz-adv-x="846" vert-adv-y="1000"  />

      
      <glyph glyph-name="unid3" unicode="&#xd3;" d="M423-14Q312-14 223.50 33Q135 80 84.50 163Q34 246 34 350Q34 454 84.50 537Q135 620 223.50 667Q312 714 423 714Q534 714 622.50 667Q711 620 761.50 537Q812 454 812 350Q812 246 761.50 163Q711 80 622.50 33Q534-14 423-14M423 150Q476 150 519 175Q562 200 587 245.50Q612 291 612 350Q612 409 587 454.50Q562 500 519 525Q476 550 423 550Q370 550 327 525Q284 500 259 454.50Q234 409 234 350Q234 291 259 245.50Q284 200 327 175Q370 150 423 150M459 909L649 909L461 757L325 757L459 909Z"  horiz-adv-x="846" vert-adv-y="1000"  />

      
      <glyph glyph-name="unid4" unicode="&#xd4;" d="M423-14Q312-14 223.50 33Q135 80 84.50 163Q34 246 34 350Q34 454 84.50 537Q135 620 223.50 667Q312 714 423 714Q534 714 622.50 667Q711 620 761.50 537Q812 454 812 350Q812 246 761.50 163Q711 80 622.50 33Q534-14 423-14M423 150Q476 150 519 175Q562 200 587 245.50Q612 291 612 350Q612 409 587 454.50Q562 500 519 525Q476 550 423 550Q370 550 327 525Q284 500 259 454.50Q234 409 234 350Q234 291 259 245.50Q284 200 327 175Q370 150 423 150M509 757L423 833L337 757L211 757L341 909L505 909L635 757L509 757Z"  horiz-adv-x="846" vert-adv-y="1000"  />

      
      <glyph glyph-name="unid5" unicode="&#xd5;" d="M423-14Q312-14 223.50 33Q135 80 84.50 163Q34 246 34 350Q34 454 84.50 537Q135 620 223.50 667Q312 714 423 714Q534 714 622.50 667Q711 620 761.50 537Q812 454 812 350Q812 246 761.50 163Q711 80 622.50 33Q534-14 423-14M423 150Q476 150 519 175Q562 200 587 245.50Q612 291 612 350Q612 409 587 454.50Q562 500 519 525Q476 550 423 550Q370 550 327 525Q284 500 259 454.50Q234 409 234 350Q234 291 259 245.50Q284 200 327 175Q370 150 423 150M501 750Q474 750 452.50 760.50Q431 771 405 789Q386 802 376.50 807Q367 812 357 812Q337 812 325 798Q313 784 311 759L218 759Q220 832 254 875Q288 918 345 918Q372 918 393 908Q414 898 441 880Q460 867 469.50 862Q479 857 489 857Q509 857 521 870.50Q533 884 535 907L628 907Q626 836 592 793Q558 750 501 750Z"  horiz-adv-x="846" vert-adv-y="1000"  />

      
      <glyph glyph-name="unid6" unicode="&#xd6;" d="M423-14Q312-14 223.50 33Q135 80 84.50 163Q34 246 34 350Q34 454 84.50 537Q135 620 223.50 667Q312 714 423 714Q534 714 622.50 667Q711 620 761.50 537Q812 454 812 350Q812 246 761.50 163Q711 80 622.50 33Q534-14 423-14M423 150Q476 150 519 175Q562 200 587 245.50Q612 291 612 350Q612 409 587 454.50Q562 500 519 525Q476 550 423 550Q370 550 327 525Q284 500 259 454.50Q234 409 234 350Q234 291 259 245.50Q284 200 327 175Q370 150 423 150M317 756Q283 756 260.50 777.50Q238 799 238 834Q238 869 260.50 891Q283 913 317 913Q351 913 373.50 891Q396 869 396 834Q396 799 373.50 777.50Q351 756 317 756M529 756Q495 756 472.50 777.50Q450 799 450 834Q450 869 472.50 891Q495 913 529 913Q563 913 585.50 891Q608 869 608 834Q608 799 585.50 777.50Q563 756 529 756Z"  horiz-adv-x="846" vert-adv-y="1000"  />

      
      <glyph glyph-name="unid7" unicode="&#xd7;" d="M407 350L530 227L428 124L305 247L182 124L80 227L203 350L80 473L182 576L305 453L428 576L530 473L407 350Z"  horiz-adv-x="609" vert-adv-y="1000"  />

      
      <glyph glyph-name="unid8" unicode="&#xd8;" d="M423-14Q312-14 223.50 33Q135 80 84.50 163Q34 246 34 350Q34 454 84.50 537Q135 620 223.50 667Q312 714 423 714Q534 714 622.50 667Q711 620 761.50 537Q812 454 812 350Q812 246 761.50 163Q711 80 622.50 33Q534-14 423-14M423 150Q476 150 519 175Q562 200 587 245.50Q612 291 612 350Q612 409 587 454.50Q562 500 519 525Q476 550 423 550Q370 550 327 525Q284 500 259 454.50Q234 409 234 350Q234 291 259 245.50Q284 200 327 175Q370 150 423 150M663 770L780 770L183-70L66-70L663 770Z"  horiz-adv-x="846" vert-adv-y="1000"  />

      
      <glyph glyph-name="unid9" unicode="&#xd9;" d="M393-14Q237-14 150.50 71Q64 156 64 312L64 700L262 700L262 318Q262 150 395 150Q527 150 527 318L527 700L722 700L722 312Q722 156 635.50 71Q549-14 393-14M169 909L359 909L493 757L357 757L169 909Z"  horiz-adv-x="786" vert-adv-y="1000"  />

      
      <glyph glyph-name="unida" unicode="&#xda;" d="M393-14Q237-14 150.50 71Q64 156 64 312L64 700L262 700L262 318Q262 150 395 150Q527 150 527 318L527 700L722 700L722 312Q722 156 635.50 71Q549-14 393-14M431 909L621 909L433 757L297 757L431 909Z"  horiz-adv-x="786" vert-adv-y="1000"  />

      
      <glyph glyph-name="unidb" unicode="&#xdb;" d="M393-14Q237-14 150.50 71Q64 156 64 312L64 700L262 700L262 318Q262 150 395 150Q527 150 527 318L527 700L722 700L722 312Q722 156 635.50 71Q549-14 393-14M481 757L395 833L309 757L183 757L313 909L477 909L607 757L481 757Z"  horiz-adv-x="786" vert-adv-y="1000"  />

      
      <glyph glyph-name="unidc" unicode="&#xdc;" d="M393-14Q237-14 150.50 71Q64 156 64 312L64 700L262 700L262 318Q262 150 395 150Q527 150 527 318L527 700L722 700L722 312Q722 156 635.50 71Q549-14 393-14M289 756Q255 756 232.50 777.50Q210 799 210 834Q210 869 232.50 891Q255 913 289 913Q323 913 345.50 891Q368 869 368 834Q368 799 345.50 777.50Q323 756 289 756M501 756Q467 756 444.50 777.50Q422 799 422 834Q422 869 444.50 891Q467 913 501 913Q535 913 557.50 891Q580 869 580 834Q580 799 557.50 777.50Q535 756 501 756Z"  horiz-adv-x="786" vert-adv-y="1000"  />

      
      <glyph glyph-name="unidd" unicode="&#xdd;" d="M445 251L445 0L247 0L247 254L-20 700L189 700L355 422L521 700L713 700L445 251M382 909L572 909L384 757L248 757L382 909Z"  horiz-adv-x="693" vert-adv-y="1000"  />

      
      <glyph glyph-name="unide" unicode="&#xde;" d="M390 628Q485 628 555 596.50Q625 565 663 506.50Q701 448 701 369Q701 290 663 231.50Q625 173 555 141.50Q485 110 390 110L268 110L268 0L70 0L70 701L268 701L268 628L390 628M378 267Q439 267 470 293.50Q501 320 501 369Q501 418 470 444.50Q439 471 378 471L268 471L268 267L378 267Z"  horiz-adv-x="737" vert-adv-y="1000"  />

      
      <glyph glyph-name="unidf" unicode="&#xdf;" d="M544 394Q607 371 642 324Q677 277 677 210Q677 108 606.50 49.50Q536-9 419-9Q387-9 353.50-4.50Q320 0 299 7L319 154Q354 142 394 142Q435 142 459.50 161Q484 180 484 215Q484 250 458.50 268.50Q433 287 385 287L332 287L332 433Q378 435 405 458.50Q432 482 432 521Q432 557 408.50 579Q385 601 346 601Q302 601 276.50 575.50Q251 550 251 502L251 0L61 0L61 478Q61 565 98.50 626.50Q136 688 201 719.50Q266 751 346 751Q429 751 489.50 723Q550 695 582 646.50Q614 598 614 537Q614 452 544 394Z"  horiz-adv-x="703" vert-adv-y="1000"  />

      
      <glyph glyph-name="unie0" unicode="&#xe0;" d="M292 551Q427 551 498 489.50Q569 428 569 301L569 0L392 0L392 70Q351-9 232-9Q169-9 123 13Q77 35 53.50 72.50Q30 110 30 158Q30 235 89 277.50Q148 320 271 320L379 320Q374 406 264 406Q225 406 185 393.50Q145 381 117 359L53 488Q98 518 162.50 534.50Q227 551 292 551M285 111Q318 111 343 127Q368 143 379 174L379 221L297 221Q214 221 214 166Q214 141 233 126Q252 111 285 111M87 759L277 759L411 607L275 607L87 759Z"  horiz-adv-x="628" vert-adv-y="1000"  />

      
      <glyph glyph-name="unie1" unicode="&#xe1;" d="M292 551Q427 551 498 489.50Q569 428 569 301L569 0L392 0L392 70Q351-9 232-9Q169-9 123 13Q77 35 53.50 72.50Q30 110 30 158Q30 235 89 277.50Q148 320 271 320L379 320Q374 406 264 406Q225 406 185 393.50Q145 381 117 359L53 488Q98 518 162.50 534.50Q227 551 292 551M285 111Q318 111 343 127Q368 143 379 174L379 221L297 221Q214 221 214 166Q214 141 233 126Q252 111 285 111M349 759L539 759L351 607L215 607L349 759Z"  horiz-adv-x="628" vert-adv-y="1000"  />

      
      <glyph glyph-name="unie2" unicode="&#xe2;" d="M292 551Q427 551 498 489.50Q569 428 569 301L569 0L392 0L392 70Q351-9 232-9Q169-9 123 13Q77 35 53.50 72.50Q30 110 30 158Q30 235 89 277.50Q148 320 271 320L379 320Q374 406 264 406Q225 406 185 393.50Q145 381 117 359L53 488Q98 518 162.50 534.50Q227 551 292 551M285 111Q318 111 343 127Q368 143 379 174L379 221L297 221Q214 221 214 166Q214 141 233 126Q252 111 285 111M399 607L313 683L227 607L101 607L231 759L395 759L525 607L399 607Z"  horiz-adv-x="628" vert-adv-y="1000"  />

      
      <glyph glyph-name="unie3" unicode="&#xe3;" d="M292 551Q427 551 498 489.50Q569 428 569 301L569 0L392 0L392 70Q351-9 232-9Q169-9 123 13Q77 35 53.50 72.50Q30 110 30 158Q30 235 89 277.50Q148 320 271 320L379 320Q374 406 264 406Q225 406 185 393.50Q145 381 117 359L53 488Q98 518 162.50 534.50Q227 551 292 551M285 111Q318 111 343 127Q368 143 379 174L379 221L297 221Q214 221 214 166Q214 141 233 126Q252 111 285 111M391 600Q364 600 342.50 610.50Q321 621 295 639Q276 652 266.50 657Q257 662 247 662Q227 662 215 648Q203 634 201 609L108 609Q110 682 144 725Q178 768 235 768Q262 768 283 758Q304 748 331 730Q350 717 359.50 712Q369 707 379 707Q399 707 411 720.50Q423 734 425 757L518 757Q516 686 482 643Q448 600 391 600Z"  horiz-adv-x="628" vert-adv-y="1000"  />

      
      <glyph glyph-name="unie4" unicode="&#xe4;" d="M292 551Q427 551 498 489.50Q569 428 569 301L569 0L392 0L392 70Q351-9 232-9Q169-9 123 13Q77 35 53.50 72.50Q30 110 30 158Q30 235 89 277.50Q148 320 271 320L379 320Q374 406 264 406Q225 406 185 393.50Q145 381 117 359L53 488Q98 518 162.50 534.50Q227 551 292 551M285 111Q318 111 343 127Q368 143 379 174L379 221L297 221Q214 221 214 166Q214 141 233 126Q252 111 285 111M207 606Q173 606 150.50 627.50Q128 649 128 684Q128 719 150.50 741Q173 763 207 763Q241 763 263.50 741Q286 719 286 684Q286 649 263.50 627.50Q241 606 207 606M419 606Q385 606 362.50 627.50Q340 649 340 684Q340 719 362.50 741Q385 763 419 763Q453 763 475.50 741Q498 719 498 684Q498 649 475.50 627.50Q453 606 419 606Z"  horiz-adv-x="628" vert-adv-y="1000"  />

      
      <glyph glyph-name="unie5" unicode="&#xe5;" d="M292 551Q427 551 498 489.50Q569 428 569 301L569 0L392 0L392 70Q351-9 232-9Q169-9 123 13Q77 35 53.50 72.50Q30 110 30 158Q30 235 89 277.50Q148 320 271 320L379 320Q374 406 264 406Q225 406 185 393.50Q145 381 117 359L53 488Q98 518 162.50 534.50Q227 551 292 551M285 111Q318 111 343 127Q368 143 379 174L379 221L297 221Q214 221 214 166Q214 141 233 126Q252 111 285 111M313 591Q257 591 219 628Q181 665 181 718Q181 772 219 809Q257 846 313 846Q349 846 379.50 829Q410 812 427.50 782.50Q445 753 445 718Q445 665 406.50 628Q368 591 313 591M313 661Q337 661 353.50 677Q370 693 370 718Q370 743 353.50 759.50Q337 776 313 776Q289 776 272.50 759.50Q256 743 256 718Q256 693 272.50 677Q289 661 313 661Z"  horiz-adv-x="628" vert-adv-y="1000"  />

      
      <glyph glyph-name="unie6" unicode="&#xe6;" d="M972 274Q972 245 969 222L575 222Q586 181 620.50 158.50Q655 136 706 136Q742 136 772 147.50Q802 159 832 183L932 79Q850-9 703-9Q633-9 573 12.50Q513 34 470 79Q406-9 266-9Q156-9 93 38.50Q30 86 30 164Q30 238 89.50 280Q149 322 271 322L379 322Q376 362 347.50 384Q319 406 265 406Q224 406 184.50 393.50Q145 381 117 359L53 488Q99 518 162 534.50Q225 551 291 551Q422 551 489 483Q528 516 578 533.50Q628 551 684 551Q762 551 828 517.50Q894 484 933 421Q972 358 972 274M681 416Q640 416 609.50 391Q579 366 571 322L790 322Q783 366 753 391Q723 416 681 416M287 111Q330 111 354.50 135Q379 159 379 200L379 222L297 222Q214 222 214 168Q214 141 233 126Q252 111 287 111Z"  horiz-adv-x="999" vert-adv-y="1000"  />

      
      <glyph glyph-name="unie7" unicode="&#xe7;" d="M338-9Q248-9 177 27Q106 63 66.50 127Q27 191 27 272Q27 353 66.50 416.50Q106 480 177 515.50Q248 551 338 551Q430 551 497 511.50Q564 472 592 402L445 327Q408 400 337 400Q286 400 252.50 366Q219 332 219 272Q219 211 252.50 176.50Q286 142 337 142Q408 142 445 215L592 140Q564 70 497 30.50Q430-9 338-9M275-236Q250-236 223.50-230Q197-224 180-215L206-140Q236-154 268-154Q318-154 318-126Q318-101 273-101L236-101L262 9L361 9L347-51Q391-56 412-78.50Q433-101 433-132Q433-180 390-208Q347-236 275-236Z"  horiz-adv-x="603" vert-adv-y="1000"  />

      
      <glyph glyph-name="unie8" unicode="&#xe8;" d="M615 270Q615 268 612 223L218 223Q230 181 264.50 158.50Q299 136 351 136Q390 136 418.50 147Q447 158 476 183L576 79Q497-9 345-9Q250-9 178 27Q106 63 66.50 127Q27 191 27 272Q27 352 65.50 415.50Q104 479 172 515Q240 551 325 551Q406 551 472 517.50Q538 484 576.50 420.50Q615 357 615 270M326 416Q282 416 252.50 391Q223 366 215 323L437 323Q429 366 399.50 391Q370 416 326 416M95 759L285 759L419 607L283 607L95 759Z"  horiz-adv-x="642" vert-adv-y="1000"  />

      
      <glyph glyph-name="unie9" unicode="&#xe9;" d="M615 270Q615 268 612 223L218 223Q230 181 264.50 158.50Q299 136 351 136Q390 136 418.50 147Q447 158 476 183L576 79Q497-9 345-9Q250-9 178 27Q106 63 66.50 127Q27 191 27 272Q27 352 65.50 415.50Q104 479 172 515Q240 551 325 551Q406 551 472 517.50Q538 484 576.50 420.50Q615 357 615 270M326 416Q282 416 252.50 391Q223 366 215 323L437 323Q429 366 399.50 391Q370 416 326 416M357 759L547 759L359 607L223 607L357 759Z"  horiz-adv-x="642" vert-adv-y="1000"  />

      
      <glyph glyph-name="uniea" unicode="&#xea;" d="M615 270Q615 268 612 223L218 223Q230 181 264.50 158.50Q299 136 351 136Q390 136 418.50 147Q447 158 476 183L576 79Q497-9 345-9Q250-9 178 27Q106 63 66.50 127Q27 191 27 272Q27 352 65.50 415.50Q104 479 172 515Q240 551 325 551Q406 551 472 517.50Q538 484 576.50 420.50Q615 357 615 270M326 416Q282 416 252.50 391Q223 366 215 323L437 323Q429 366 399.50 391Q370 416 326 416M407 607L321 683L235 607L109 607L239 759L403 759L533 607L407 607Z"  horiz-adv-x="642" vert-adv-y="1000"  />

      
      <glyph glyph-name="unieb" unicode="&#xeb;" d="M615 270Q615 268 612 223L218 223Q230 181 264.50 158.50Q299 136 351 136Q390 136 418.50 147Q447 158 476 183L576 79Q497-9 345-9Q250-9 178 27Q106 63 66.50 127Q27 191 27 272Q27 352 65.50 415.50Q104 479 172 515Q240 551 325 551Q406 551 472 517.50Q538 484 576.50 420.50Q615 357 615 270M326 416Q282 416 252.50 391Q223 366 215 323L437 323Q429 366 399.50 391Q370 416 326 416M215 606Q181 606 158.50 627.50Q136 649 136 684Q136 719 158.50 741Q181 763 215 763Q249 763 271.50 741Q294 719 294 684Q294 649 271.50 627.50Q249 606 215 606M427 606Q393 606 370.50 627.50Q348 649 348 684Q348 719 370.50 741Q393 763 427 763Q461 763 483.50 741Q506 719 506 684Q506 649 483.50 627.50Q461 606 427 606Z"  horiz-adv-x="642" vert-adv-y="1000"  />

      
      <glyph glyph-name="uniec" unicode="&#xec;" d="M61 542L251 542L251 0L61 0L61 542M-70 759L120 759L254 607L118 607L-70 759Z"  horiz-adv-x="313" vert-adv-y="1000"  />

      
      <glyph glyph-name="unied" unicode="&#xed;" d="M61 542L251 542L251 0L61 0L61 542M192 759L382 759L194 607L58 607L192 759Z"  horiz-adv-x="313" vert-adv-y="1000"  />

      
      <glyph glyph-name="uniee" unicode="&#xee;" d="M61 542L251 542L251 0L61 0L61 542M218 607L156 676L94 607L-31 607L76 759L236 759L343 607L218 607Z"  horiz-adv-x="313" vert-adv-y="1000"  />

      
      <glyph glyph-name="unief" unicode="&#xef;" d="M61 542L251 542L251 0L61 0L61 542M69 606Q37 606 16 628Q-5 650-5 684Q-5 718 16 740Q37 762 69 762Q100 762 121 740Q142 718 142 684Q142 649 121 627.50Q100 606 69 606M244 606Q212 606 191 628Q170 650 170 684Q170 718 191 740Q212 762 244 762Q275 762 296 740Q317 718 317 684Q317 649 296 627.50Q275 606 244 606Z"  horiz-adv-x="313" vert-adv-y="1000"  />

      
      <glyph glyph-name="unif0" unicode="&#xf0;" d="M562 611Q639 508 639 340Q639 230 598 150.50Q557 71 482 28.50Q407-14 306-14Q228-14 164 15.50Q100 45 63.50 99.50Q27 154 27 225Q27 291 60.50 342Q94 393 151 421Q208 449 277 449Q380 449 440 392Q437 494 391 547L147 457L114 542L282 605Q259 609 228 609Q160 609 100 589L80 731Q160 749 238 749Q387 749 488 682L580 716L613 630L562 611M321 127Q366 127 395 152.50Q424 178 424 217Q424 257 395 282.50Q366 308 322 308Q277 308 248.50 283.50Q220 259 220 217Q220 176 248.50 151.50Q277 127 321 127Z"  horiz-adv-x="666" vert-adv-y="1000"  />

      
      <glyph glyph-name="unif1" unicode="&#xf1;" d="M414 551Q515 551 576.50 491Q638 431 638 310L638 0L448 0L448 279Q448 390 359 390Q310 390 280.50 358Q251 326 251 262L251 0L61 0L61 542L242 542L242 483Q274 516 318 533.50Q362 551 414 551M430 600Q403 600 381.50 610.50Q360 621 334 639Q315 652 305.50 657Q296 662 286 662Q266 662 254 648Q242 634 240 609L147 609Q149 682 183 725Q217 768 274 768Q301 768 322 758Q343 748 370 730Q389 717 398.50 712Q408 707 418 707Q438 707 450 720.50Q462 734 464 757L557 757Q555 686 521 643Q487 600 430 600Z"  horiz-adv-x="696" vert-adv-y="1000"  />

      
      <glyph glyph-name="unif2" unicode="&#xf2;" d="M333-9Q246-9 176 27Q106 63 66.50 127Q27 191 27 272Q27 352 66.50 416Q106 480 175.50 515.50Q245 551 333 551Q421 551 491 515.50Q561 480 600 416.50Q639 353 639 272Q639 191 600 127Q561 63 491 27Q421-9 333-9M333 142Q383 142 415 176.50Q447 211 447 272Q447 332 415 366Q383 400 333 400Q283 400 251 366Q219 332 219 272Q219 211 251 176.50Q283 142 333 142M105 759L295 759L429 607L293 607L105 759Z"  horiz-adv-x="666" vert-adv-y="1000"  />

      
      <glyph glyph-name="unif3" unicode="&#xf3;" d="M333-9Q246-9 176 27Q106 63 66.50 127Q27 191 27 272Q27 352 66.50 416Q106 480 175.50 515.50Q245 551 333 551Q421 551 491 515.50Q561 480 600 416.50Q639 353 639 272Q639 191 600 127Q561 63 491 27Q421-9 333-9M333 142Q383 142 415 176.50Q447 211 447 272Q447 332 415 366Q383 400 333 400Q283 400 251 366Q219 332 219 272Q219 211 251 176.50Q283 142 333 142M367 759L557 759L369 607L233 607L367 759Z"  horiz-adv-x="666" vert-adv-y="1000"  />

      
      <glyph glyph-name="unif4" unicode="&#xf4;" d="M333-9Q246-9 176 27Q106 63 66.50 127Q27 191 27 272Q27 352 66.50 416Q106 480 175.50 515.50Q245 551 333 551Q421 551 491 515.50Q561 480 600 416.50Q639 353 639 272Q639 191 600 127Q561 63 491 27Q421-9 333-9M333 142Q383 142 415 176.50Q447 211 447 272Q447 332 415 366Q383 400 333 400Q283 400 251 366Q219 332 219 272Q219 211 251 176.50Q283 142 333 142M417 607L331 683L245 607L119 607L249 759L413 759L543 607L417 607Z"  horiz-adv-x="666" vert-adv-y="1000"  />

      
      <glyph glyph-name="unif5" unicode="&#xf5;" d="M333-9Q246-9 176 27Q106 63 66.50 127Q27 191 27 272Q27 352 66.50 416Q106 480 175.50 515.50Q245 551 333 551Q421 551 491 515.50Q561 480 600 416.50Q639 353 639 272Q639 191 600 127Q561 63 491 27Q421-9 333-9M333 142Q383 142 415 176.50Q447 211 447 272Q447 332 415 366Q383 400 333 400Q283 400 251 366Q219 332 219 272Q219 211 251 176.50Q283 142 333 142M409 600Q382 600 360.50 610.50Q339 621 313 639Q294 652 284.50 657Q275 662 265 662Q245 662 233 648Q221 634 219 609L126 609Q128 682 162 725Q196 768 253 768Q280 768 301 758Q322 748 349 730Q368 717 377.50 712Q387 707 397 707Q417 707 429 720.50Q441 734 443 757L536 757Q534 686 500 643Q466 600 409 600Z"  horiz-adv-x="666" vert-adv-y="1000"  />

      
      <glyph glyph-name="unif6" unicode="&#xf6;" d="M333-9Q246-9 176 27Q106 63 66.50 127Q27 191 27 272Q27 352 66.50 416Q106 480 175.50 515.50Q245 551 333 551Q421 551 491 515.50Q561 480 600 416.50Q639 353 639 272Q639 191 600 127Q561 63 491 27Q421-9 333-9M333 142Q383 142 415 176.50Q447 211 447 272Q447 332 415 366Q383 400 333 400Q283 400 251 366Q219 332 219 272Q219 211 251 176.50Q283 142 333 142M225 606Q191 606 168.50 627.50Q146 649 146 684Q146 719 168.50 741Q191 763 225 763Q259 763 281.50 741Q304 719 304 684Q304 649 281.50 627.50Q259 606 225 606M437 606Q403 606 380.50 627.50Q358 649 358 684Q358 719 380.50 741Q403 763 437 763Q471 763 493.50 741Q516 719 516 684Q516 649 493.50 627.50Q471 606 437 606Z"  horiz-adv-x="666" vert-adv-y="1000"  />

      
      <glyph glyph-name="unif7" unicode="&#xf7;" d="M305 469Q263 469 235.50 496Q208 523 208 565Q208 607 235.50 633.50Q263 660 305 660Q346 660 374 633.50Q402 607 402 565Q402 523 374 496Q346 469 305 469M58 423L551 423L551 277L58 277L58 423M305 40Q263 40 235.50 67.50Q208 95 208 137Q208 179 235.50 205Q263 231 305 231Q346 231 374 204.50Q402 178 402 137Q402 95 374 67.50Q346 40 305 40Z"  horiz-adv-x="609" vert-adv-y="1000"  />

      
      <glyph glyph-name="unif8" unicode="&#xf8;" d="M333-9Q246-9 176 27Q106 63 66.50 127Q27 191 27 272Q27 352 66.50 416Q106 480 175.50 515.50Q245 551 333 551Q421 551 491 515.50Q561 480 600 416.50Q639 353 639 272Q639 191 600 127Q561 63 491 27Q421-9 333-9M333 142Q383 142 415 176.50Q447 211 447 272Q447 332 415 366Q383 400 333 400Q283 400 251 366Q219 332 219 272Q219 211 251 176.50Q283 142 333 142M508 607L594 607L153-70L67-70L508 607Z"  horiz-adv-x="666" vert-adv-y="1000"  />

      
      <glyph glyph-name="unif9" unicode="&#xf9;" d="M631 542L631 0L450 0L450 58Q420 25 378 8Q336-9 289-9Q184-9 121.50 53Q59 115 59 239L59 542L249 542L249 270Q249 209 272 181Q295 153 339 153Q384 153 412.50 184.50Q441 216 441 281L441 542L631 542M119 759L309 759L443 607L307 607L119 759Z"  horiz-adv-x="692" vert-adv-y="1000"  />

      
      <glyph glyph-name="unifa" unicode="&#xfa;" d="M631 542L631 0L450 0L450 58Q420 25 378 8Q336-9 289-9Q184-9 121.50 53Q59 115 59 239L59 542L249 542L249 270Q249 209 272 181Q295 153 339 153Q384 153 412.50 184.50Q441 216 441 281L441 542L631 542M381 759L571 759L383 607L247 607L381 759Z"  horiz-adv-x="692" vert-adv-y="1000"  />

      
      <glyph glyph-name="unifb" unicode="&#xfb;" d="M631 542L631 0L450 0L450 58Q420 25 378 8Q336-9 289-9Q184-9 121.50 53Q59 115 59 239L59 542L249 542L249 270Q249 209 272 181Q295 153 339 153Q384 153 412.50 184.50Q441 216 441 281L441 542L631 542M431 607L345 683L259 607L133 607L263 759L427 759L557 607L431 607Z"  horiz-adv-x="692" vert-adv-y="1000"  />

      
      <glyph glyph-name="unifc" unicode="&#xfc;" d="M631 542L631 0L450 0L450 58Q420 25 378 8Q336-9 289-9Q184-9 121.50 53Q59 115 59 239L59 542L249 542L249 270Q249 209 272 181Q295 153 339 153Q384 153 412.50 184.50Q441 216 441 281L441 542L631 542M239 606Q205 606 182.50 627.50Q160 649 160 684Q160 719 182.50 741Q205 763 239 763Q273 763 295.50 741Q318 719 318 684Q318 649 295.50 627.50Q273 606 239 606M451 606Q417 606 394.50 627.50Q372 649 372 684Q372 719 394.50 741Q417 763 451 763Q485 763 507.50 741Q530 719 530 684Q530 649 507.50 627.50Q485 606 451 606Z"  horiz-adv-x="692" vert-adv-y="1000"  />

      
      <glyph glyph-name="unifd" unicode="&#xfd;" d="M632 542L398-22Q357-122 298-162.50Q239-203 154-203Q111-203 67.50-189.50Q24-176-3-154L63-21Q79-36 101.50-44.50Q124-53 147-53Q174-53 191.50-42Q209-31 221-7L-11 542L184 542L317 211L451 542L632 542M336 759L526 759L338 607L202 607L336 759Z"  horiz-adv-x="620" vert-adv-y="1000"  />

      
      <glyph glyph-name="unife" unicode="&#xfe;" d="M402 551Q476 551 536.50 516.50Q597 482 632.50 418.50Q668 355 668 271Q668 187 632.50 123.50Q597 60 536.50 25.50Q476-9 402-9Q307-9 251 48L251-194L61-194L61 742L251 742L251 498Q304 551 402 551M362 142Q412 142 444 176.50Q476 211 476 271Q476 331 444 365.50Q412 400 362 400Q312 400 280 365.50Q248 331 248 271Q248 211 280 176.50Q312 142 362 142Z"  horiz-adv-x="695" vert-adv-y="1000"  />

      
      <glyph glyph-name="uniff" unicode="&#xff;" d="M632 542L398-22Q357-122 298-162.50Q239-203 154-203Q111-203 67.50-189.50Q24-176-3-154L63-21Q79-36 101.50-44.50Q124-53 147-53Q174-53 191.50-42Q209-31 221-7L-11 542L184 542L317 211L451 542L632 542M194 606Q160 606 137.50 627.50Q115 649 115 684Q115 719 137.50 741Q160 763 194 763Q228 763 250.50 741Q273 719 273 684Q273 649 250.50 627.50Q228 606 194 606M406 606Q372 606 349.50 627.50Q327 649 327 684Q327 719 349.50 741Q372 763 406 763Q440 763 462.50 741Q485 719 485 684Q485 649 462.50 627.50Q440 606 406 606Z"  horiz-adv-x="620" vert-adv-y="1000"  />

      
      <glyph glyph-name="uni0100" unicode="&#x0100;" d="M539 136L243 136L188 0L-14 0L295 700L490 700L800 0L594 0L539 136M481 282L391 506L301 282L481 282M196 884L590 884L590 782L196 782L196 884Z"  horiz-adv-x="786" vert-adv-y="1000"  />

      
      <glyph glyph-name="uni0101" unicode="&#x0101;" d="M292 551Q427 551 498 489.50Q569 428 569 301L569 0L392 0L392 70Q351-9 232-9Q169-9 123 13Q77 35 53.50 72.50Q30 110 30 158Q30 235 89 277.50Q148 320 271 320L379 320Q374 406 264 406Q225 406 185 393.50Q145 381 117 359L53 488Q98 518 162.50 534.50Q227 551 292 551M285 111Q318 111 343 127Q368 143 379 174L379 221L297 221Q214 221 214 166Q214 141 233 126Q252 111 285 111M116 734L510 734L510 632L116 632L116 734Z"  horiz-adv-x="628" vert-adv-y="1000"  />

      
      <glyph glyph-name="uni0102" unicode="&#x0102;" d="M539 136L243 136L188 0L-14 0L295 700L490 700L800 0L594 0L539 136M481 282L391 506L301 282L481 282M393 748Q308 748 254 791.50Q200 835 197 909L313 909Q314 879 337 861Q360 843 393 843Q426 843 449 861Q472 879 473 909L589 909Q586 835 532 791.50Q478 748 393 748Z"  horiz-adv-x="786" vert-adv-y="1000"  />

      
      <glyph glyph-name="uni0103" unicode="&#x0103;" d="M292 551Q427 551 498 489.50Q569 428 569 301L569 0L392 0L392 70Q351-9 232-9Q169-9 123 13Q77 35 53.50 72.50Q30 110 30 158Q30 235 89 277.50Q148 320 271 320L379 320Q374 406 264 406Q225 406 185 393.50Q145 381 117 359L53 488Q98 518 162.50 534.50Q227 551 292 551M285 111Q318 111 343 127Q368 143 379 174L379 221L297 221Q214 221 214 166Q214 141 233 126Q252 111 285 111M313 598Q228 598 174 641.50Q120 685 117 759L233 759Q234 729 257 711Q280 693 313 693Q346 693 369 711Q392 729 393 759L509 759Q506 685 452 641.50Q398 598 313 598Z"  horiz-adv-x="628" vert-adv-y="1000"  />

      
      <glyph glyph-name="uni0104" unicode="&#x0104;" d="M539 136L243 136L188 0L-14 0L295 700L490 700L800 0L594 0L539 136M481 282L391 506L301 282L481 282M718-236Q648-236 609-204Q570-172 570-119Q570-67 610.50-24.50Q651 18 730 45L800 0Q737-28 711-52Q685-76 685-102Q685-122 699.50-134Q714-146 740-146Q772-146 800-131L825-213Q806-223 776.50-229.50Q747-236 718-236Z"  horiz-adv-x="786" vert-adv-y="1000"  />

      
      <glyph glyph-name="uni0105" unicode="&#x0105;" d="M292 551Q427 551 498 489.50Q569 428 569 301L569 0L392 0L392 70Q351-9 232-9Q169-9 123 13Q77 35 53.50 72.50Q30 110 30 158Q30 235 89 277.50Q148 320 271 320L379 320Q374 406 264 406Q225 406 185 393.50Q145 381 117 359L53 488Q98 518 162.50 534.50Q227 551 292 551M285 111Q318 111 343 127Q368 143 379 174L379 221L297 221Q214 221 214 166Q214 141 233 126Q252 111 285 111M487-236Q417-236 378-204Q339-172 339-119Q339-67 379.50-24.50Q420 18 499 45L569 0Q506-28 480-52Q454-76 454-102Q454-122 468.50-134Q483-146 509-146Q541-146 569-131L594-213Q575-223 545.50-229.50Q516-236 487-236Z"  horiz-adv-x="628" vert-adv-y="1000"  />

      
      <glyph glyph-name="uni0106" unicode="&#x0106;" d="M419-14Q309-14 221.50 32.50Q134 79 84 162Q34 245 34 350Q34 455 84 538Q134 621 221.50 667.50Q309 714 419 714Q515 714 592 680Q669 646 720 582L594 468Q526 550 429 550Q372 550 327.50 525Q283 500 258.50 454.50Q234 409 234 350Q234 291 258.50 245.50Q283 200 327.50 175Q372 150 429 150Q526 150 594 232L720 118Q669 54 592 20Q515-14 419-14M452 910L642 910L454 758L318 758L452 910Z"  horiz-adv-x="738" vert-adv-y="1000"  />

      
      <glyph glyph-name="uni0107" unicode="&#x0107;" d="M338-9Q248-9 177 27Q106 63 66.50 127Q27 191 27 272Q27 353 66.50 416.50Q106 480 177 515.50Q248 551 338 551Q430 551 497 511.50Q564 472 592 402L445 327Q408 400 337 400Q286 400 252.50 366Q219 332 219 272Q219 211 252.50 176.50Q286 142 337 142Q408 142 445 215L592 140Q564 70 497 30.50Q430-9 338-9M354 759L544 759L356 607L220 607L354 759Z"  horiz-adv-x="603" vert-adv-y="1000"  />

      
      <glyph glyph-name="uni0108" unicode="&#x0108;" d="M419-14Q309-14 221.50 32.50Q134 79 84 162Q34 245 34 350Q34 455 84 538Q134 621 221.50 667.50Q309 714 419 714Q515 714 592 680Q669 646 720 582L594 468Q526 550 429 550Q372 550 327.50 525Q283 500 258.50 454.50Q234 409 234 350Q234 291 258.50 245.50Q283 200 327.50 175Q372 150 429 150Q526 150 594 232L720 118Q669 54 592 20Q515-14 419-14M502 758L416 834L330 758L204 758L334 910L498 910L628 758L502 758Z"  horiz-adv-x="738" vert-adv-y="1000"  />

      
      <glyph glyph-name="uni0109" unicode="&#x0109;" d="M338-9Q248-9 177 27Q106 63 66.50 127Q27 191 27 272Q27 353 66.50 416.50Q106 480 177 515.50Q248 551 338 551Q430 551 497 511.50Q564 472 592 402L445 327Q408 400 337 400Q286 400 252.50 366Q219 332 219 272Q219 211 252.50 176.50Q286 142 337 142Q408 142 445 215L592 140Q564 70 497 30.50Q430-9 338-9M404 607L318 683L232 607L106 607L236 759L400 759L530 607L404 607Z"  horiz-adv-x="603" vert-adv-y="1000"  />

      
      <glyph glyph-name="uni010A" unicode="&#x010A;" d="M419-14Q309-14 221.50 32.50Q134 79 84 162Q34 245 34 350Q34 455 84 538Q134 621 221.50 667.50Q309 714 419 714Q515 714 592 680Q669 646 720 582L594 468Q526 550 429 550Q372 550 327.50 525Q283 500 258.50 454.50Q234 409 234 350Q234 291 258.50 245.50Q283 200 327.50 175Q372 150 429 150Q526 150 594 232L720 118Q669 54 592 20Q515-14 419-14M416 756Q372 756 344.50 784Q317 812 317 855Q317 898 345 925.50Q373 953 416 953Q459 953 487 925.50Q515 898 515 855Q515 812 487 784Q459 756 416 756Z"  horiz-adv-x="738" vert-adv-y="1000"  />

      
      <glyph glyph-name="uni010B" unicode="&#x010B;" d="M338-9Q248-9 177 27Q106 63 66.50 127Q27 191 27 272Q27 353 66.50 416.50Q106 480 177 515.50Q248 551 338 551Q430 551 497 511.50Q564 472 592 402L445 327Q408 400 337 400Q286 400 252.50 366Q219 332 219 272Q219 211 252.50 176.50Q286 142 337 142Q408 142 445 215L592 140Q564 70 497 30.50Q430-9 338-9M318 605Q274 605 246.50 633Q219 661 219 704Q219 747 247 774.50Q275 802 318 802Q361 802 389 774.50Q417 747 417 704Q417 661 389 633Q361 605 318 605Z"  horiz-adv-x="603" vert-adv-y="1000"  />

      
      <glyph glyph-name="uni010C" unicode="&#x010C;" d="M419-14Q309-14 221.50 32.50Q134 79 84 162Q34 245 34 350Q34 455 84 538Q134 621 221.50 667.50Q309 714 419 714Q515 714 592 680Q669 646 720 582L594 468Q526 550 429 550Q372 550 327.50 525Q283 500 258.50 454.50Q234 409 234 350Q234 291 258.50 245.50Q283 200 327.50 175Q372 150 429 150Q526 150 594 232L720 118Q669 54 592 20Q515-14 419-14M628 910L498 758L334 758L204 910L330 910L416 834L502 910L628 910Z"  horiz-adv-x="738" vert-adv-y="1000"  />

      
      <glyph glyph-name="uni010D" unicode="&#x010D;" d="M338-9Q248-9 177 27Q106 63 66.50 127Q27 191 27 272Q27 353 66.50 416.50Q106 480 177 515.50Q248 551 338 551Q430 551 497 511.50Q564 472 592 402L445 327Q408 400 337 400Q286 400 252.50 366Q219 332 219 272Q219 211 252.50 176.50Q286 142 337 142Q408 142 445 215L592 140Q564 70 497 30.50Q430-9 338-9M530 759L400 607L236 607L106 759L232 759L318 683L404 759L530 759Z"  horiz-adv-x="603" vert-adv-y="1000"  />

      
      <glyph glyph-name="uni010E" unicode="&#x010E;" d="M70 700L401 700Q516 700 605 657Q694 614 743 535Q792 456 792 350Q792 244 743 165Q694 86 605 43Q516 0 401 0L70 0L70 700M393 158Q483 158 537.50 209Q592 260 592 350Q592 440 537.50 491Q483 542 393 542L268 542L268 158L393 158M577 909L447 757L283 757L153 909L279 909L365 833L451 909L577 909Z"  horiz-adv-x="826" vert-adv-y="1000"  />

      
      <glyph glyph-name="uni010F" unicode="&#x010F;" d="M637 742L637 0L456 0L456 54Q403-9 297-9Q223-9 162 25.50Q101 60 65.50 124Q30 188 30 272Q30 356 65.50 419.50Q101 483 162 517Q223 551 297 551Q394 551 447 495L447 742L637 742M337 142Q386 142 418 176.50Q450 211 450 272Q450 332 418.50 366Q387 400 337 400Q287 400 255 366Q223 332 223 272Q223 211 255 176.50Q287 142 337 142M715 787L852 787L827 582L715 582L715 787Z"  horiz-adv-x="698" vert-adv-y="1000"  />

      
      <glyph glyph-name="uni0110" unicode="&#x0110;" d="M87 700L418 700Q533 700 622 657Q711 614 760 535Q809 456 809 350Q809 244 760 165Q711 86 622 43Q533 0 418 0L87 0L87 700M410 158Q500 158 554.50 209Q609 260 609 350Q609 440 554.50 491Q500 542 410 542L285 542L285 158L410 158M-3 416L447 416L447 294L-3 294L-3 416Z"  horiz-adv-x="843" vert-adv-y="1000"  />

      
      <glyph glyph-name="uni0111" unicode="&#x0111;" d="M637 742L637 0L456 0L456 54Q403-9 297-9Q223-9 162 25.50Q101 60 65.50 124Q30 188 30 272Q30 356 65.50 419.50Q101 483 162 517Q223 551 297 551Q394 551 447 495L447 742L637 742M337 142Q386 142 418 176.50Q450 211 450 272Q450 332 418.50 366Q387 400 337 400Q287 400 255 366Q223 332 223 272Q223 211 255 176.50Q287 142 337 142M280 688L700 688L700 589L280 589L280 688Z"  horiz-adv-x="698" vert-adv-y="1000"  />

      
      <glyph glyph-name="uni0112" unicode="&#x0112;" d="M632 153L632 0L70 0L70 700L619 700L619 547L266 547L266 429L577 429L577 281L266 281L266 153L632 153M148 884L542 884L542 782L148 782L148 884Z"  horiz-adv-x="672" vert-adv-y="1000"  />

      
      <glyph glyph-name="uni0113" unicode="&#x0113;" d="M615 270Q615 268 612 223L218 223Q230 181 264.50 158.50Q299 136 351 136Q390 136 418.50 147Q447 158 476 183L576 79Q497-9 345-9Q250-9 178 27Q106 63 66.50 127Q27 191 27 272Q27 352 65.50 415.50Q104 479 172 515Q240 551 325 551Q406 551 472 517.50Q538 484 576.50 420.50Q615 357 615 270M326 416Q282 416 252.50 391Q223 366 215 323L437 323Q429 366 399.50 391Q370 416 326 416M124 734L518 734L518 632L124 632L124 734Z"  horiz-adv-x="642" vert-adv-y="1000"  />

      
      <glyph glyph-name="uni0114" unicode="&#x0114;" d="M632 153L632 0L70 0L70 700L619 700L619 547L266 547L266 429L577 429L577 281L266 281L266 153L632 153M345 748Q260 748 206 791.50Q152 835 149 909L265 909Q266 879 289 861Q312 843 345 843Q378 843 401 861Q424 879 425 909L541 909Q538 835 484 791.50Q430 748 345 748Z"  horiz-adv-x="672" vert-adv-y="1000"  />

      
      <glyph glyph-name="uni0115" unicode="&#x0115;" d="M615 270Q615 268 612 223L218 223Q230 181 264.50 158.50Q299 136 351 136Q390 136 418.50 147Q447 158 476 183L576 79Q497-9 345-9Q250-9 178 27Q106 63 66.50 127Q27 191 27 272Q27 352 65.50 415.50Q104 479 172 515Q240 551 325 551Q406 551 472 517.50Q538 484 576.50 420.50Q615 357 615 270M326 416Q282 416 252.50 391Q223 366 215 323L437 323Q429 366 399.50 391Q370 416 326 416M321 598Q236 598 182 641.50Q128 685 125 759L241 759Q242 729 265 711Q288 693 321 693Q354 693 377 711Q400 729 401 759L517 759Q514 685 460 641.50Q406 598 321 598Z"  horiz-adv-x="642" vert-adv-y="1000"  />

      
      <glyph glyph-name="uni0116" unicode="&#x0116;" d="M632 153L632 0L70 0L70 700L619 700L619 547L266 547L266 429L577 429L577 281L266 281L266 153L632 153M345 755Q301 755 273.50 783Q246 811 246 854Q246 897 274 924.50Q302 952 345 952Q388 952 416 924.50Q444 897 444 854Q444 811 416 783Q388 755 345 755Z"  horiz-adv-x="672" vert-adv-y="1000"  />

      
      <glyph glyph-name="uni0117" unicode="&#x0117;" d="M615 270Q615 268 612 223L218 223Q230 181 264.50 158.50Q299 136 351 136Q390 136 418.50 147Q447 158 476 183L576 79Q497-9 345-9Q250-9 178 27Q106 63 66.50 127Q27 191 27 272Q27 352 65.50 415.50Q104 479 172 515Q240 551 325 551Q406 551 472 517.50Q538 484 576.50 420.50Q615 357 615 270M326 416Q282 416 252.50 391Q223 366 215 323L437 323Q429 366 399.50 391Q370 416 326 416M321 605Q277 605 249.50 633Q222 661 222 704Q222 747 250 774.50Q278 802 321 802Q364 802 392 774.50Q420 747 420 704Q420 661 392 633Q364 605 321 605Z"  horiz-adv-x="642" vert-adv-y="1000"  />

      
      <glyph glyph-name="uni0118" unicode="&#x0118;" d="M632 153L632 0L70 0L70 700L619 700L619 547L266 547L266 429L577 429L577 281L266 281L266 153L632 153M550-236Q480-236 441-204Q402-172 402-119Q402-67 442.50-24.50Q483 18 562 45L632 0Q569-28 543-52Q517-76 517-102Q517-122 531.50-134Q546-146 572-146Q604-146 632-131L657-213Q638-223 608.50-229.50Q579-236 550-236Z"  horiz-adv-x="672" vert-adv-y="1000"  />

      
      <glyph glyph-name="uni0119" unicode="&#x0119;" d="M615 270Q615 268 612 223L218 223Q230 181 264.50 158.50Q299 136 351 136Q390 136 418.50 147Q447 158 476 183L576 79Q560 60 535 42Q470-1 446.50-33Q423-65 423-96Q423-119 438.50-132.50Q454-146 480-146Q510-146 538-131L563-213Q545-223 515-229.50Q485-236 456-236Q387-236 347.50-203.50Q308-171 308-115Q308-87 321.50-59Q335-31 359-9L345-9Q250-9 178 27Q106 63 66.50 127Q27 191 27 272Q27 352 65.50 415.50Q104 479 172 515Q240 551 325 551Q406 551 472 517.50Q538 484 576.50 420.50Q615 357 615 270M326 416Q282 416 252.50 391Q223 366 215 323L437 323Q429 366 399.50 391Q370 416 326 416Z"  horiz-adv-x="642" vert-adv-y="1000"  />

      
      <glyph glyph-name="uni011A" unicode="&#x011A;" d="M632 153L632 0L70 0L70 700L619 700L619 547L266 547L266 429L577 429L577 281L266 281L266 153L632 153M557 909L427 757L263 757L133 909L259 909L345 833L431 909L557 909Z"  horiz-adv-x="672" vert-adv-y="1000"  />

      
      <glyph glyph-name="uni011B" unicode="&#x011B;" d="M615 270Q615 268 612 223L218 223Q230 181 264.50 158.50Q299 136 351 136Q390 136 418.50 147Q447 158 476 183L576 79Q497-9 345-9Q250-9 178 27Q106 63 66.50 127Q27 191 27 272Q27 352 65.50 415.50Q104 479 172 515Q240 551 325 551Q406 551 472 517.50Q538 484 576.50 420.50Q615 357 615 270M326 416Q282 416 252.50 391Q223 366 215 323L437 323Q429 366 399.50 391Q370 416 326 416M533 759L403 607L239 607L109 759L235 759L321 683L407 759L533 759Z"  horiz-adv-x="642" vert-adv-y="1000"  />

      
      <glyph glyph-name="uni011C" unicode="&#x011C;" d="M539 365L714 365L714 75Q654 32 576 9Q498-14 420-14Q310-14 222 32.50Q134 79 84 162Q34 245 34 350Q34 455 84 538Q134 621 223 667.50Q312 714 424 714Q522 714 600 681Q678 648 730 586L604 472Q533 550 434 550Q344 550 289 495.50Q234 441 234 350Q234 292 259 246.50Q284 201 329 175.50Q374 150 432 150Q489 150 539 173L539 365M506 758L420 834L334 758L208 758L338 910L502 910L632 758L506 758Z"  horiz-adv-x="770" vert-adv-y="1000"  />

      
      <glyph glyph-name="uni011D" unicode="&#x011D;" d="M644 542L644 99Q644-52 562-127.50Q480-203 326-203Q246-203 176-185Q106-167 57-132L126 1Q159-26 209.50-41.50Q260-57 309-57Q384-57 419-24Q454 9 454 74L454 92Q399 28 293 28Q221 28 160 60.50Q99 93 63 152.50Q27 212 27 290Q27 367 63 426.50Q99 486 160 518.50Q221 551 293 551Q409 551 463 476L463 542L644 542M338 179Q389 179 422.50 210Q456 241 456 290Q456 339 423 369.50Q390 400 338 400Q286 400 252.50 369.50Q219 339 219 290Q219 241 253 210Q287 179 338 179M434 607L348 683L262 607L136 607L266 759L430 759L560 607L434 607Z"  horiz-adv-x="705" vert-adv-y="1000"  />

      
      <glyph glyph-name="uni011E" unicode="&#x011E;" d="M539 365L714 365L714 75Q654 32 576 9Q498-14 420-14Q310-14 222 32.50Q134 79 84 162Q34 245 34 350Q34 455 84 538Q134 621 223 667.50Q312 714 424 714Q522 714 600 681Q678 648 730 586L604 472Q533 550 434 550Q344 550 289 495.50Q234 441 234 350Q234 292 259 246.50Q284 201 329 175.50Q374 150 432 150Q489 150 539 173L539 365M420 749Q335 749 281 792.50Q227 836 224 910L340 910Q341 880 364 862Q387 844 420 844Q453 844 476 862Q499 880 500 910L616 910Q613 836 559 792.50Q505 749 420 749Z"  horiz-adv-x="770" vert-adv-y="1000"  />

      
      <glyph glyph-name="uni011F" unicode="&#x011F;" d="M644 542L644 99Q644-52 562-127.50Q480-203 326-203Q246-203 176-185Q106-167 57-132L126 1Q159-26 209.50-41.50Q260-57 309-57Q384-57 419-24Q454 9 454 74L454 92Q399 28 293 28Q221 28 160 60.50Q99 93 63 152.50Q27 212 27 290Q27 367 63 426.50Q99 486 160 518.50Q221 551 293 551Q409 551 463 476L463 542L644 542M338 179Q389 179 422.50 210Q456 241 456 290Q456 339 423 369.50Q390 400 338 400Q286 400 252.50 369.50Q219 339 219 290Q219 241 253 210Q287 179 338 179M348 598Q263 598 209 641.50Q155 685 152 759L268 759Q269 729 292 711Q315 693 348 693Q381 693 404 711Q427 729 428 759L544 759Q541 685 487 641.50Q433 598 348 598Z"  horiz-adv-x="705" vert-adv-y="1000"  />

      
      <glyph glyph-name="uni0120" unicode="&#x0120;" d="M539 365L714 365L714 75Q654 32 576 9Q498-14 420-14Q310-14 222 32.50Q134 79 84 162Q34 245 34 350Q34 455 84 538Q134 621 223 667.50Q312 714 424 714Q522 714 600 681Q678 648 730 586L604 472Q533 550 434 550Q344 550 289 495.50Q234 441 234 350Q234 292 259 246.50Q284 201 329 175.50Q374 150 432 150Q489 150 539 173L539 365M420 756Q376 756 348.50 784Q321 812 321 855Q321 898 349 925.50Q377 953 420 953Q463 953 491 925.50Q519 898 519 855Q519 812 491 784Q463 756 420 756Z"  horiz-adv-x="770" vert-adv-y="1000"  />

      
      <glyph glyph-name="uni0121" unicode="&#x0121;" d="M644 542L644 99Q644-52 562-127.50Q480-203 326-203Q246-203 176-185Q106-167 57-132L126 1Q159-26 209.50-41.50Q260-57 309-57Q384-57 419-24Q454 9 454 74L454 92Q399 28 293 28Q221 28 160 60.50Q99 93 63 152.50Q27 212 27 290Q27 367 63 426.50Q99 486 160 518.50Q221 551 293 551Q409 551 463 476L463 542L644 542M338 179Q389 179 422.50 210Q456 241 456 290Q456 339 423 369.50Q390 400 338 400Q286 400 252.50 369.50Q219 339 219 290Q219 241 253 210Q287 179 338 179M348 605Q304 605 276.50 633Q249 661 249 704Q249 747 277 774.50Q305 802 348 802Q391 802 419 774.50Q447 747 447 704Q447 661 419 633Q391 605 348 605Z"  horiz-adv-x="705" vert-adv-y="1000"  />

      
      <glyph glyph-name="uni0122" unicode="&#x0122;" d="M539 365L714 365L714 75Q654 32 576 9Q498-14 420-14Q310-14 222 32.50Q134 79 84 162Q34 245 34 350Q34 455 84 538Q134 621 223 667.50Q312 714 424 714Q522 714 600 681Q678 648 730 586L604 472Q533 550 434 550Q344 550 289 495.50Q234 441 234 350Q234 292 259 246.50Q284 201 329 175.50Q374 150 432 150Q489 150 539 173L539 365M408-62Q444-62 465.50-80.50Q487-99 487-129Q487-164 466-201L429-268L343-268L369-189Q329-174 329-129Q329-99 350.50-80.50Q372-62 408-62Z"  horiz-adv-x="770" vert-adv-y="1000"  />

      
      <glyph glyph-name="uni0123" unicode="&#x0123;" d="M644 542L644 99Q644-52 562-127.50Q480-203 326-203Q246-203 176-185Q106-167 57-132L126 1Q159-26 209.50-41.50Q260-57 309-57Q384-57 419-24Q454 9 454 74L454 92Q399 28 293 28Q221 28 160 60.50Q99 93 63 152.50Q27 212 27 290Q27 367 63 426.50Q99 486 160 518.50Q221 551 293 551Q409 551 463 476L463 542L644 542M338 179Q389 179 422.50 210Q456 241 456 290Q456 339 423 369.50Q390 400 338 400Q286 400 252.50 369.50Q219 339 219 290Q219 241 253 210Q287 179 338 179M394 725Q441 710 441 665Q441 634 417 616Q393 598 348 598Q303 598 279 616Q255 634 255 665Q255 693 281 737L330 825L431 825L394 725Z"  horiz-adv-x="705" vert-adv-y="1000"  />

      
      <glyph glyph-name="uni0124" unicode="&#x0124;" d="M736 700L736 0L538 0L538 273L268 273L268 0L70 0L70 700L268 700L268 437L538 437L538 700L736 700M489 757L403 833L317 757L191 757L321 909L485 909L615 757L489 757Z"  horiz-adv-x="806" vert-adv-y="1000"  />

      
      <glyph glyph-name="uni0125" unicode="&#x0125;" d="M414 551Q515 551 576.50 491Q638 431 638 310L638 0L448 0L448 279Q448 390 359 390Q310 390 280.50 358Q251 326 251 262L251 0L61 0L61 742L251 742L251 492Q282 521 324 536Q366 551 414 551M242 799L156 875L70 799L-56 799L74 951L238 951L368 799L242 799Z"  horiz-adv-x="696" vert-adv-y="1000"  />

      
      <glyph glyph-name="uni0126" unicode="&#x0126;" d="M753 700L753 0L555 0L555 273L285 273L285 0L87 0L87 700L285 700L285 437L555 437L555 700L753 700M-4 630L843 630L843 509L-4 509L-4 630Z"  horiz-adv-x="840" vert-adv-y="1000"  />

      
      <glyph glyph-name="uni0127" unicode="&#x0127;" d="M414 551Q515 551 576.50 491Q638 431 638 310L638 0L448 0L448 279Q448 390 359 390Q310 390 280.50 358Q251 326 251 262L251 0L61 0L61 742L251 742L251 492Q282 521 324 536Q366 551 414 551M0 688L420 688L420 589L0 589L0 688Z"  horiz-adv-x="696" vert-adv-y="1000"  />

      
      <glyph glyph-name="uni0128" unicode="&#x0128;" d="M70 700L268 700L268 0L70 0L70 700M247 750Q220 750 198.50 760.50Q177 771 151 789Q132 802 122.50 807Q113 812 103 812Q83 812 71 798Q59 784 57 759L-36 759Q-34 832 0 875Q34 918 91 918Q118 918 139 908Q160 898 187 880Q206 867 215.50 862Q225 857 235 857Q255 857 267 870.50Q279 884 281 907L374 907Q372 836 338 793Q304 750 247 750Z"  horiz-adv-x="339" vert-adv-y="1000"  />

      
      <glyph glyph-name="uni0129" unicode="&#x0129;" d="M61 542L251 542L251 0L61 0L61 542M225 600Q198 600 178 611.50Q158 623 136 643Q126 652 116.50 658.50Q107 665 100 665Q70 665 70 609L-21 609Q-21 687 6.50 727.50Q34 768 87 768Q113 768 133 757Q153 746 176 726Q186 717 195.50 710.50Q205 704 212 704Q242 704 242 757L333 757Q333 681 305.50 640.50Q278 600 225 600Z"  horiz-adv-x="313" vert-adv-y="1000"  />

      
      <glyph glyph-name="uni012A" unicode="&#x012A;" d="M70 700L268 700L268 0L70 0L70 700M9 883L329 883L329 781L9 781L9 883Z"  horiz-adv-x="339" vert-adv-y="1000"  />

      
      <glyph glyph-name="uni012B" unicode="&#x012B;" d="M61 542L251 542L251 0L61 0L61 542M-4 734L316 734L316 632L-4 632L-4 734Z"  horiz-adv-x="313" vert-adv-y="1000"  />

      
      <glyph glyph-name="uni012C" unicode="&#x012C;" d="M70 700L268 700L268 0L70 0L70 700M169 748Q84 748 30 791.50Q-24 835-27 909L89 909Q90 879 113 861Q136 843 169 843Q202 843 225 861Q248 879 249 909L365 909Q362 835 308 791.50Q254 748 169 748Z"  horiz-adv-x="339" vert-adv-y="1000"  />

      
      <glyph glyph-name="uni012D" unicode="&#x012D;" d="M61 542L251 542L251 0L61 0L61 542M156 598Q81 598 33.50 642Q-14 686-15 759L96 759Q96 728 112 709.50Q128 691 156 691Q184 691 200 709.50Q216 728 216 759L327 759Q326 686 278.50 642Q231 598 156 598Z"  horiz-adv-x="313" vert-adv-y="1000"  />

      
      <glyph glyph-name="uni012E" unicode="&#x012E;" d="M70 700L268 700L268 0L70 0L70 700M217-236Q158-236 121.50-203.50Q85-171 85-118Q85-67 118.50-24.50Q152 18 215 46L268 0Q231-27 216-51Q201-75 201-101Q201-121 212.50-133.50Q224-146 241-146Q257-146 273-135L296-214Q281-224 260.50-230Q240-236 217-236Z"  horiz-adv-x="339" vert-adv-y="1000"  />

      
      <glyph glyph-name="uni012F" unicode="&#x012F;" d="M61 542L251 542L251 0L61 0L61 542M156 602Q104 602 72 631Q40 660 40 703Q40 746 72 775Q104 804 156 804Q208 804 240 776.50Q272 749 272 706Q272 661 240 631.50Q208 602 156 602M200-236Q141-236 104.50-203.50Q68-171 68-118Q68-67 101.50-24.50Q135 18 198 46L251 0Q214-27 199-51Q184-75 184-101Q184-121 195.50-133.50Q207-146 224-146Q240-146 256-135L279-214Q264-224 243.50-230Q223-236 200-236Z"  horiz-adv-x="313" vert-adv-y="1000"  />

      
      <glyph glyph-name="uni0130" unicode="&#x0130;" d="M70 700L268 700L268 0L70 0L70 700M169 755Q125 755 97.50 783Q70 811 70 854Q70 897 98 924.50Q126 952 169 952Q212 952 240 924.50Q268 897 268 854Q268 811 240 783Q212 755 169 755Z"  horiz-adv-x="339" vert-adv-y="1000"  />

      
      <glyph glyph-name="uni0131" unicode="&#x0131;" d="M61 542L251 542L251 0L61 0L61 542Z"  horiz-adv-x="313" vert-adv-y="1000"  />

      
      <glyph glyph-name="uni0132" unicode="&#x0132;" d="M328-14Q245-14 172.50 7.50Q100 29 47 67L119 211Q166 180 219 163.50Q272 147 321 147Q393 147 428.50 186.50Q464 226 464 309L464 700L662 700L662 320Q662 213 621 138Q580 63 504.50 24.50Q429-14 328-14M64 700L262 700L262 329L64 329L64 700Z"  horiz-adv-x="727" vert-adv-y="1000"  />

      
      <glyph glyph-name="uni0133" unicode="&#x0133;" d="M61 542L251 542L251 0L61 0L61 542M156 602Q104 602 72 631Q40 660 40 703Q40 746 72 775Q104 804 156 804Q208 804 240 776.50Q272 749 272 706Q272 661 240 631.50Q208 602 156 602M351-203Q268-203 219-175L267-40Q293-56 326-56Q352-56 367-38Q382-20 382 15L382 542L572 542L572 14Q572-86 513.50-144.50Q455-203 351-203M477 602Q425 602 393 631Q361 660 361 703Q361 746 393 775Q425 804 477 804Q529 804 561 776.50Q593 749 593 706Q593 661 561 631.50Q529 602 477 602Z"  horiz-adv-x="633" vert-adv-y="1000"  />

      
      <glyph glyph-name="uni0134" unicode="&#x0134;" d="M223-14Q146-14 83 12.50Q20 39-20 89L88 217Q144 144 209 144Q252 144 274.50 170Q297 196 297 246L297 547L55 547L55 700L493 700L493 258Q493 122 424.50 54Q356-14 223-14M360 757L274 833L188 757L62 757L192 909L356 909L486 757L360 757Z"  horiz-adv-x="557" vert-adv-y="1000"  />

      
      <glyph glyph-name="uni0135" unicode="&#x0135;" d="M38-203Q-45-203-94-175L-46-40Q-20-56 13-56Q39-56 54-38Q69-20 69 15L69 542L259 542L259 14Q259-86 200.50-144.50Q142-203 38-203M226 607L164 676L102 607L-23 607L84 759L244 759L351 607L226 607Z"  horiz-adv-x="320" vert-adv-y="1000"  />

      
      <glyph glyph-name="uni0136" unicode="&#x0136;" d="M340 254L266 175L266 0L70 0L70 700L266 700L266 409L537 700L755 700L469 390L770 0L540 0L340 254M382-62Q418-62 439.50-80.50Q461-99 461-129Q461-164 440-201L403-268L317-268L343-189Q303-174 303-129Q303-99 324.50-80.50Q346-62 382-62Z"  horiz-adv-x="752" vert-adv-y="1000"  />

      
      <glyph glyph-name="uni0137" unicode="&#x0137;" d="M307 190L251 133L251 0L61 0L61 742L251 742L251 353L445 542L670 542L445 310L689 0L459 0L307 190M320-62Q356-62 377.50-80.50Q399-99 399-129Q399-164 378-201L341-268L255-268L281-189Q241-174 241-129Q241-99 262.50-80.50Q284-62 320-62Z"  horiz-adv-x="686" vert-adv-y="1000"  />

      
      <glyph glyph-name="uni0138" unicode="&#x0138;" d="M307 190L251 133L251 0L61 0L61 542L251 542L251 353L445 542L670 542L445 310L689 0L459 0L307 190Z"  horiz-adv-x="667" vert-adv-y="1000"  />

      
      <glyph glyph-name="uni0139" unicode="&#x0139;" d="M70 700L268 700L268 157L602 157L602 0L70 0L70 700M205 909L395 909L207 757L71 757L205 909Z"  horiz-adv-x="610" vert-adv-y="1000"  />

      
      <glyph glyph-name="uni013A" unicode="&#x013A;" d="M61 742L251 742L251 0L61 0L61 742M192 959L382 959L194 807L58 807L192 959Z"  horiz-adv-x="313" vert-adv-y="1000"  />

      
      <glyph glyph-name="uni013B" unicode="&#x013B;" d="M70 700L268 700L268 157L602 157L602 0L70 0L70 700M348-62Q384-62 405.50-80.50Q427-99 427-129Q427-164 406-201L369-268L283-268L309-189Q269-174 269-129Q269-99 290.50-80.50Q312-62 348-62Z"  horiz-adv-x="610" vert-adv-y="1000"  />

      
      <glyph glyph-name="uni013C" unicode="&#x013C;" d="M61 742L251 742L251 0L61 0L61 742M156-62Q192-62 213.50-80.50Q235-99 235-129Q235-164 214-201L177-268L91-268L117-189Q77-174 77-129Q77-99 98.50-80.50Q120-62 156-62Z"  horiz-adv-x="313" vert-adv-y="1000"  />

      
      <glyph glyph-name="uni013D" unicode="&#x013D;" d="M70 700L268 700L268 157L602 157L602 0L70 0L70 700M427 745L564 745L539 540L427 540L427 745Z"  horiz-adv-x="610" vert-adv-y="1000"  />

      
      <glyph glyph-name="uni013E" unicode="&#x013E;" d="M61 742L251 742L251 0L61 0L61 742M326 787L463 787L438 582L326 582L326 787Z"  horiz-adv-x="313" vert-adv-y="1000"  />

      
      <glyph glyph-name="uni013F" unicode="&#x013F;" d="M70 700L268 700L268 157L602 157L602 0L70 0L70 700M475 328Q431 328 403.50 356Q376 384 376 428Q376 472 404 500Q432 528 475 528Q518 528 546 500Q574 472 574 428Q574 384 546.50 356Q519 328 475 328Z"  horiz-adv-x="610" vert-adv-y="1000"  />

      
      <glyph glyph-name="uni0140" unicode="&#x0140;" d="M61 742L251 742L251 0L61 0L61 742M387 276Q347 276 322 301Q297 326 297 366Q297 406 322 431Q347 456 387 456Q427 456 452.50 431Q478 406 478 366Q478 326 452.50 301Q427 276 387 276Z"  horiz-adv-x="462" vert-adv-y="1000"  />

      
      <glyph glyph-name="uni0141" unicode="&#x0141;" d="M87 700L285 700L285 157L619 157L619 0L87 0L87 700M-24 303L385 609L449 520L40 215L-24 303Z"  horiz-adv-x="627" vert-adv-y="1000"  />

      
      <glyph glyph-name="uni0142" unicode="&#x0142;" d="M78 742L268 742L268 0L78 0L78 742M-37 278L320 544L383 454L27 189L-37 278Z"  horiz-adv-x="347" vert-adv-y="1000"  />

      
      <glyph glyph-name="uni0143" unicode="&#x0143;" d="M736 700L736 0L573 0L264 373L264 0L70 0L70 700L233 700L542 327L542 700L736 700M439 909L629 909L441 757L305 757L439 909Z"  horiz-adv-x="806" vert-adv-y="1000"  />

      
      <glyph glyph-name="uni0144" unicode="&#x0144;" d="M414 551Q515 551 576.50 491Q638 431 638 310L638 0L448 0L448 279Q448 390 359 390Q310 390 280.50 358Q251 326 251 262L251 0L61 0L61 542L242 542L242 483Q274 516 318 533.50Q362 551 414 551M388 759L578 759L390 607L254 607L388 759Z"  horiz-adv-x="696" vert-adv-y="1000"  />

      
      <glyph glyph-name="uni0145" unicode="&#x0145;" d="M736 700L736 0L573 0L264 373L264 0L70 0L70 700L233 700L542 327L542 700L736 700M403-62Q439-62 460.50-80.50Q482-99 482-129Q482-164 461-201L424-268L338-268L364-189Q324-174 324-129Q324-99 345.50-80.50Q367-62 403-62Z"  horiz-adv-x="806" vert-adv-y="1000"  />

      
      <glyph glyph-name="uni0146" unicode="&#x0146;" d="M414 551Q515 551 576.50 491Q638 431 638 310L638 0L448 0L448 279Q448 390 359 390Q310 390 280.50 358Q251 326 251 262L251 0L61 0L61 542L242 542L242 483Q274 516 318 533.50Q362 551 414 551M352-62Q388-62 409.50-80.50Q431-99 431-129Q431-164 410-201L373-268L287-268L313-189Q273-174 273-129Q273-99 294.50-80.50Q316-62 352-62Z"  horiz-adv-x="696" vert-adv-y="1000"  />

      
      <glyph glyph-name="uni0147" unicode="&#x0147;" d="M736 700L736 0L573 0L264 373L264 0L70 0L70 700L233 700L542 327L542 700L736 700M615 909L485 757L321 757L191 909L317 909L403 833L489 909L615 909Z"  horiz-adv-x="806" vert-adv-y="1000"  />

      
      </font>
</defs>
</svg>
